<mxfile host="app.diagrams.net" agent="Mozilla/5.0 (Windows NT 10.0; Win64; x64) AppleWebKit/537.36 (KHTML, like Gecko) Chrome/135.0.0.0 Safari/537.36" version="26.2.14" pages="5">
  <diagram id="jL5EllLIQ67MmCXnTZcO" name="PRINCIPAL">
    <mxGraphModel grid="1" page="1" gridSize="10" guides="1" tooltips="1" connect="1" arrows="1" fold="1" pageScale="1" pageWidth="827" pageHeight="1169" math="0" shadow="0">
      <root>
        <mxCell id="0" />
        <mxCell id="1" parent="0" />
        <mxCell id="KVr01R96LGneUkX0vs8K-20" style="edgeStyle=orthogonalEdgeStyle;rounded=0;orthogonalLoop=1;jettySize=auto;html=1;entryX=0;entryY=0.5;entryDx=0;entryDy=0;strokeColor=#DF130C;" edge="1" parent="1" source="KVr01R96LGneUkX0vs8K-30" target="KVr01R96LGneUkX0vs8K-60">
          <mxGeometry relative="1" as="geometry" />
        </mxCell>
        <mxCell id="KVr01R96LGneUkX0vs8K-22" style="edgeStyle=orthogonalEdgeStyle;rounded=0;orthogonalLoop=1;jettySize=auto;html=1;entryX=0;entryY=0.5;entryDx=0;entryDy=0;strokeColor=#DB0F0F;" edge="1" parent="1" source="KVr01R96LGneUkX0vs8K-30" target="KVr01R96LGneUkX0vs8K-52">
          <mxGeometry relative="1" as="geometry">
            <mxPoint x="630" y="550" as="targetPoint" />
          </mxGeometry>
        </mxCell>
        <mxCell id="KVr01R96LGneUkX0vs8K-23" style="edgeStyle=orthogonalEdgeStyle;rounded=0;orthogonalLoop=1;jettySize=auto;html=1;entryX=0;entryY=0.5;entryDx=0;entryDy=0;strokeColor=#DB0F0F;" edge="1" parent="1" source="KVr01R96LGneUkX0vs8K-30" target="KVr01R96LGneUkX0vs8K-49">
          <mxGeometry relative="1" as="geometry" />
        </mxCell>
        <mxCell id="KVr01R96LGneUkX0vs8K-24" style="edgeStyle=orthogonalEdgeStyle;rounded=0;orthogonalLoop=1;jettySize=auto;html=1;entryX=0;entryY=0.5;entryDx=0;entryDy=0;strokeColor=#DB0F0F;" edge="1" parent="1" source="KVr01R96LGneUkX0vs8K-30" target="KVr01R96LGneUkX0vs8K-43">
          <mxGeometry relative="1" as="geometry" />
        </mxCell>
        <mxCell id="KVr01R96LGneUkX0vs8K-25" style="edgeStyle=orthogonalEdgeStyle;rounded=0;orthogonalLoop=1;jettySize=auto;html=1;entryX=0;entryY=0.5;entryDx=0;entryDy=0;strokeColor=#DB0F0F;" edge="1" parent="1" source="KVr01R96LGneUkX0vs8K-30" target="KVr01R96LGneUkX0vs8K-54">
          <mxGeometry relative="1" as="geometry" />
        </mxCell>
        <mxCell id="KVr01R96LGneUkX0vs8K-26" style="edgeStyle=orthogonalEdgeStyle;rounded=0;orthogonalLoop=1;jettySize=auto;html=1;entryX=0;entryY=0.5;entryDx=0;entryDy=0;strokeColor=#DB0F0F;" edge="1" parent="1" source="KVr01R96LGneUkX0vs8K-30" target="KVr01R96LGneUkX0vs8K-45">
          <mxGeometry relative="1" as="geometry" />
        </mxCell>
        <mxCell id="KVr01R96LGneUkX0vs8K-27" style="edgeStyle=orthogonalEdgeStyle;rounded=0;orthogonalLoop=1;jettySize=auto;html=1;entryX=0;entryY=0.5;entryDx=0;entryDy=0;strokeColor=#DB0F0F;" edge="1" parent="1" source="KVr01R96LGneUkX0vs8K-30" target="KVr01R96LGneUkX0vs8K-62">
          <mxGeometry relative="1" as="geometry" />
        </mxCell>
        <mxCell id="KVr01R96LGneUkX0vs8K-28" style="edgeStyle=orthogonalEdgeStyle;rounded=0;orthogonalLoop=1;jettySize=auto;html=1;entryX=0;entryY=0.5;entryDx=0;entryDy=0;strokeColor=#DB0F0F;" edge="1" parent="1" source="KVr01R96LGneUkX0vs8K-30" target="KVr01R96LGneUkX0vs8K-47">
          <mxGeometry relative="1" as="geometry">
            <Array as="points">
              <mxPoint x="485" y="930" />
              <mxPoint x="485" y="1250" />
              <mxPoint x="650" y="1250" />
            </Array>
          </mxGeometry>
        </mxCell>
        <mxCell id="KVr01R96LGneUkX0vs8K-29" style="edgeStyle=orthogonalEdgeStyle;rounded=0;orthogonalLoop=1;jettySize=auto;html=1;entryX=0;entryY=0.5;entryDx=0;entryDy=0;strokeColor=#DB0F0F;" edge="1" parent="1" source="KVr01R96LGneUkX0vs8K-30" target="KVr01R96LGneUkX0vs8K-56">
          <mxGeometry relative="1" as="geometry" />
        </mxCell>
        <mxCell id="SYhs9_iWre-nZq4GP4J0-37" style="edgeStyle=orthogonalEdgeStyle;rounded=0;orthogonalLoop=1;jettySize=auto;html=1;entryX=0;entryY=0.5;entryDx=0;entryDy=0;fillColor=#e51400;strokeColor=#B20000;" edge="1" parent="1" source="KVr01R96LGneUkX0vs8K-30" target="KVr01R96LGneUkX0vs8K-41">
          <mxGeometry relative="1" as="geometry" />
        </mxCell>
        <mxCell id="KVr01R96LGneUkX0vs8K-30" value="&lt;font style=&quot;vertical-align: inherit;&quot;&gt;&lt;font style=&quot;vertical-align: inherit;&quot;&gt;Administrador&lt;/font&gt;&lt;/font&gt;" style="shape=umlActor;verticalLabelPosition=bottom;verticalAlign=top;html=1;outlineConnect=0;" vertex="1" parent="1">
          <mxGeometry x="290" y="900" width="30" height="60" as="geometry" />
        </mxCell>
        <mxCell id="SYhs9_iWre-nZq4GP4J0-3" style="edgeStyle=orthogonalEdgeStyle;rounded=0;orthogonalLoop=1;jettySize=auto;html=1;entryX=1;entryY=0.5;entryDx=0;entryDy=0;fillColor=#d5e8d4;strokeColor=#82b366;" edge="1" parent="1" source="KVr01R96LGneUkX0vs8K-36" target="KVr01R96LGneUkX0vs8K-41">
          <mxGeometry relative="1" as="geometry" />
        </mxCell>
        <mxCell id="SYhs9_iWre-nZq4GP4J0-5" style="edgeStyle=orthogonalEdgeStyle;rounded=0;orthogonalLoop=1;jettySize=auto;html=1;entryX=1;entryY=0.5;entryDx=0;entryDy=0;fillColor=#d5e8d4;strokeColor=#82b366;" edge="1" parent="1" source="KVr01R96LGneUkX0vs8K-36" target="KVr01R96LGneUkX0vs8K-52">
          <mxGeometry relative="1" as="geometry" />
        </mxCell>
        <mxCell id="SYhs9_iWre-nZq4GP4J0-6" style="edgeStyle=orthogonalEdgeStyle;rounded=0;orthogonalLoop=1;jettySize=auto;html=1;entryX=1;entryY=0.5;entryDx=0;entryDy=0;fillColor=#d5e8d4;strokeColor=#82b366;" edge="1" parent="1" source="KVr01R96LGneUkX0vs8K-36" target="KVr01R96LGneUkX0vs8K-49">
          <mxGeometry relative="1" as="geometry" />
        </mxCell>
        <mxCell id="SYhs9_iWre-nZq4GP4J0-7" style="edgeStyle=orthogonalEdgeStyle;rounded=0;orthogonalLoop=1;jettySize=auto;html=1;entryX=1;entryY=0.5;entryDx=0;entryDy=0;fillColor=#d5e8d4;strokeColor=#82b366;" edge="1" parent="1" source="KVr01R96LGneUkX0vs8K-36" target="KVr01R96LGneUkX0vs8K-43">
          <mxGeometry relative="1" as="geometry" />
        </mxCell>
        <mxCell id="SYhs9_iWre-nZq4GP4J0-8" style="edgeStyle=orthogonalEdgeStyle;rounded=0;orthogonalLoop=1;jettySize=auto;html=1;entryX=1;entryY=0.5;entryDx=0;entryDy=0;fillColor=#d5e8d4;strokeColor=#82b366;" edge="1" parent="1" source="KVr01R96LGneUkX0vs8K-36" target="KVr01R96LGneUkX0vs8K-60">
          <mxGeometry relative="1" as="geometry" />
        </mxCell>
        <mxCell id="KVr01R96LGneUkX0vs8K-36" value="&lt;font style=&quot;vertical-align: inherit;&quot;&gt;&lt;font style=&quot;vertical-align: inherit;&quot;&gt;Gerencia&lt;/font&gt;&lt;/font&gt;" style="shape=umlActor;verticalLabelPosition=bottom;verticalAlign=top;html=1;outlineConnect=0;" vertex="1" parent="1">
          <mxGeometry x="1180" y="730" width="30" height="60" as="geometry" />
        </mxCell>
        <mxCell id="tgb2tIRhIyOir0SX37_R-3" style="edgeStyle=orthogonalEdgeStyle;rounded=0;orthogonalLoop=1;jettySize=auto;html=1;entryX=1;entryY=0.314;entryDx=0;entryDy=0;entryPerimeter=0;fillColor=#a20025;strokeColor=#6F0000;" edge="1" parent="1" source="KVr01R96LGneUkX0vs8K-39" target="KVr01R96LGneUkX0vs8K-41">
          <mxGeometry relative="1" as="geometry">
            <mxPoint x="1180" y="470" as="targetPoint" />
          </mxGeometry>
        </mxCell>
        <mxCell id="KVr01R96LGneUkX0vs8K-39" value="&lt;div&gt;&lt;font style=&quot;vertical-align: inherit;&quot;&gt;&lt;font style=&quot;vertical-align: inherit;&quot;&gt;Personal&lt;/font&gt;&lt;/font&gt;&lt;/div&gt;" style="shape=umlActor;verticalLabelPosition=bottom;verticalAlign=top;html=1;outlineConnect=0;" vertex="1" parent="1">
          <mxGeometry x="1390" y="1169" width="30" height="60" as="geometry" />
        </mxCell>
        <mxCell id="KVr01R96LGneUkX0vs8K-40" value="" style="edgeStyle=orthogonalEdgeStyle;rounded=0;orthogonalLoop=1;jettySize=auto;html=1;" edge="1" parent="1" source="KVr01R96LGneUkX0vs8K-41" target="KVr01R96LGneUkX0vs8K-52">
          <mxGeometry relative="1" as="geometry" />
        </mxCell>
        <mxCell id="KVr01R96LGneUkX0vs8K-41" value="CU2&lt;div&gt;Gestionar Usuarios&lt;/div&gt;" style="ellipse;whiteSpace=wrap;html=1;" vertex="1" parent="1">
          <mxGeometry x="650" y="410" width="140" height="70" as="geometry" />
        </mxCell>
        <mxCell id="KVr01R96LGneUkX0vs8K-42" value="" style="edgeStyle=orthogonalEdgeStyle;rounded=0;orthogonalLoop=1;jettySize=auto;html=1;" edge="1" parent="1" source="KVr01R96LGneUkX0vs8K-43" target="KVr01R96LGneUkX0vs8K-54">
          <mxGeometry relative="1" as="geometry" />
        </mxCell>
        <mxCell id="KVr01R96LGneUkX0vs8K-43" value="CU6&lt;div&gt;Gestionar reportes&lt;/div&gt;" style="ellipse;whiteSpace=wrap;html=1;" vertex="1" parent="1">
          <mxGeometry x="650" y="819.5" width="140" height="70" as="geometry" />
        </mxCell>
        <mxCell id="KVr01R96LGneUkX0vs8K-44" value="" style="edgeStyle=orthogonalEdgeStyle;rounded=0;orthogonalLoop=1;jettySize=auto;html=1;" edge="1" parent="1" source="KVr01R96LGneUkX0vs8K-45" target="KVr01R96LGneUkX0vs8K-62">
          <mxGeometry relative="1" as="geometry" />
        </mxCell>
        <mxCell id="KVr01R96LGneUkX0vs8K-45" value="CU8&lt;div&gt;Reportes ingresos&lt;/div&gt;" style="ellipse;whiteSpace=wrap;html=1;" vertex="1" parent="1">
          <mxGeometry x="650" y="1020" width="140" height="70" as="geometry" />
        </mxCell>
        <mxCell id="KVr01R96LGneUkX0vs8K-46" value="" style="edgeStyle=orthogonalEdgeStyle;rounded=0;orthogonalLoop=1;jettySize=auto;html=1;" edge="1" parent="1" source="KVr01R96LGneUkX0vs8K-47" target="KVr01R96LGneUkX0vs8K-56">
          <mxGeometry relative="1" as="geometry" />
        </mxCell>
        <mxCell id="KVr01R96LGneUkX0vs8K-47" value="CU10&lt;div&gt;Gestionar horarios&lt;/div&gt;" style="ellipse;whiteSpace=wrap;html=1;" vertex="1" parent="1">
          <mxGeometry x="650" y="1220" width="140" height="70" as="geometry" />
        </mxCell>
        <mxCell id="KVr01R96LGneUkX0vs8K-48" value="" style="edgeStyle=orthogonalEdgeStyle;rounded=0;orthogonalLoop=1;jettySize=auto;html=1;" edge="1" parent="1" source="KVr01R96LGneUkX0vs8K-49" target="KVr01R96LGneUkX0vs8K-58">
          <mxGeometry relative="1" as="geometry" />
        </mxCell>
        <mxCell id="KVr01R96LGneUkX0vs8K-49" value="CU4&lt;div&gt;Gestionar contratos&lt;/div&gt;" style="ellipse;whiteSpace=wrap;html=1;" vertex="1" parent="1">
          <mxGeometry x="650" y="620" width="140" height="70" as="geometry" />
        </mxCell>
        <mxCell id="KVr01R96LGneUkX0vs8K-51" value="" style="edgeStyle=orthogonalEdgeStyle;rounded=0;orthogonalLoop=1;jettySize=auto;html=1;" edge="1" parent="1" source="KVr01R96LGneUkX0vs8K-52" target="KVr01R96LGneUkX0vs8K-49">
          <mxGeometry relative="1" as="geometry" />
        </mxCell>
        <mxCell id="KVr01R96LGneUkX0vs8K-52" value="CU3&lt;div&gt;&lt;span style=&quot;background-color: initial;&quot;&gt;Gestionar vacantes&lt;/span&gt;&lt;/div&gt;" style="ellipse;whiteSpace=wrap;html=1;" vertex="1" parent="1">
          <mxGeometry x="650" y="510" width="140" height="70" as="geometry" />
        </mxCell>
        <mxCell id="KVr01R96LGneUkX0vs8K-53" value="" style="edgeStyle=orthogonalEdgeStyle;rounded=0;orthogonalLoop=1;jettySize=auto;html=1;" edge="1" parent="1" source="KVr01R96LGneUkX0vs8K-54" target="KVr01R96LGneUkX0vs8K-45">
          <mxGeometry relative="1" as="geometry" />
        </mxCell>
        <mxCell id="KVr01R96LGneUkX0vs8K-54" value="CU7&lt;div&gt;Gestionar solicitudes&lt;/div&gt;" style="ellipse;whiteSpace=wrap;html=1;" vertex="1" parent="1">
          <mxGeometry x="650" y="920" width="140" height="70" as="geometry" />
        </mxCell>
        <mxCell id="KVr01R96LGneUkX0vs8K-56" value="CU11&lt;div&gt;Gestionar horas extras&lt;/div&gt;" style="ellipse;whiteSpace=wrap;html=1;" vertex="1" parent="1">
          <mxGeometry x="650" y="1320" width="140" height="70" as="geometry" />
        </mxCell>
        <mxCell id="KVr01R96LGneUkX0vs8K-57" value="" style="edgeStyle=orthogonalEdgeStyle;rounded=0;orthogonalLoop=1;jettySize=auto;html=1;" edge="1" parent="1" source="KVr01R96LGneUkX0vs8K-58" target="KVr01R96LGneUkX0vs8K-43">
          <mxGeometry relative="1" as="geometry" />
        </mxCell>
        <mxCell id="KVr01R96LGneUkX0vs8K-58" value="CU5&lt;div&gt;Gestionar contratación&amp;nbsp;&lt;/div&gt;" style="ellipse;whiteSpace=wrap;html=1;" vertex="1" parent="1">
          <mxGeometry x="650" y="720" width="140" height="70" as="geometry" />
        </mxCell>
        <mxCell id="KVr01R96LGneUkX0vs8K-59" value="" style="edgeStyle=orthogonalEdgeStyle;rounded=0;orthogonalLoop=1;jettySize=auto;html=1;" edge="1" parent="1" source="KVr01R96LGneUkX0vs8K-60" target="KVr01R96LGneUkX0vs8K-41">
          <mxGeometry relative="1" as="geometry" />
        </mxCell>
        <mxCell id="KVr01R96LGneUkX0vs8K-60" value="&lt;div&gt;CU1&lt;/div&gt;Iniciar sesión&amp;nbsp;&lt;div&gt;&lt;br&gt;&lt;/div&gt;" style="ellipse;whiteSpace=wrap;html=1;" vertex="1" parent="1">
          <mxGeometry x="650" y="310" width="140" height="70" as="geometry" />
        </mxCell>
        <mxCell id="KVr01R96LGneUkX0vs8K-61" value="" style="edgeStyle=orthogonalEdgeStyle;rounded=0;orthogonalLoop=1;jettySize=auto;html=1;" edge="1" parent="1" source="KVr01R96LGneUkX0vs8K-62" target="KVr01R96LGneUkX0vs8K-47">
          <mxGeometry relative="1" as="geometry" />
        </mxCell>
        <mxCell id="KVr01R96LGneUkX0vs8K-62" value="CU9&lt;div&gt;Gestionar certificados laboreales&lt;/div&gt;" style="ellipse;whiteSpace=wrap;html=1;" vertex="1" parent="1">
          <mxGeometry x="650" y="1120" width="142.5" height="70" as="geometry" />
        </mxCell>
        <mxCell id="KVr01R96LGneUkX0vs8K-63" style="edgeStyle=orthogonalEdgeStyle;rounded=0;orthogonalLoop=1;jettySize=auto;html=1;entryX=0;entryY=0.714;entryDx=0;entryDy=0;entryPerimeter=0;strokeColor=#DB0F0F;" edge="1" parent="1" source="KVr01R96LGneUkX0vs8K-30" target="KVr01R96LGneUkX0vs8K-58">
          <mxGeometry relative="1" as="geometry" />
        </mxCell>
        <mxCell id="SYhs9_iWre-nZq4GP4J0-13" style="edgeStyle=orthogonalEdgeStyle;rounded=0;orthogonalLoop=1;jettySize=auto;html=1;entryX=0.5;entryY=0;entryDx=0;entryDy=0;fillColor=#e3c800;strokeColor=#B09500;" edge="1" parent="1" source="SYhs9_iWre-nZq4GP4J0-9" target="KVr01R96LGneUkX0vs8K-60">
          <mxGeometry relative="1" as="geometry" />
        </mxCell>
        <mxCell id="SYhs9_iWre-nZq4GP4J0-14" style="edgeStyle=orthogonalEdgeStyle;rounded=0;orthogonalLoop=1;jettySize=auto;html=1;entryX=1;entryY=0.5;entryDx=0;entryDy=0;fillColor=#e3c800;strokeColor=#B09500;" edge="1" parent="1" source="SYhs9_iWre-nZq4GP4J0-9" target="KVr01R96LGneUkX0vs8K-41">
          <mxGeometry relative="1" as="geometry">
            <Array as="points">
              <mxPoint x="1020" y="310" />
              <mxPoint x="1020" y="470" />
              <mxPoint x="790" y="470" />
            </Array>
          </mxGeometry>
        </mxCell>
        <mxCell id="SYhs9_iWre-nZq4GP4J0-18" style="edgeStyle=orthogonalEdgeStyle;rounded=0;orthogonalLoop=1;jettySize=auto;html=1;entryX=1;entryY=0.5;entryDx=0;entryDy=0;fillColor=#e3c800;strokeColor=#B09500;" edge="1" parent="1" source="SYhs9_iWre-nZq4GP4J0-9" target="KVr01R96LGneUkX0vs8K-58">
          <mxGeometry relative="1" as="geometry" />
        </mxCell>
        <mxCell id="SYhs9_iWre-nZq4GP4J0-20" style="edgeStyle=orthogonalEdgeStyle;rounded=0;orthogonalLoop=1;jettySize=auto;html=1;entryX=1;entryY=0.5;entryDx=0;entryDy=0;fillColor=#e3c800;strokeColor=#B09500;" edge="1" parent="1" source="SYhs9_iWre-nZq4GP4J0-9" target="KVr01R96LGneUkX0vs8K-54">
          <mxGeometry relative="1" as="geometry" />
        </mxCell>
        <mxCell id="SYhs9_iWre-nZq4GP4J0-21" style="edgeStyle=orthogonalEdgeStyle;rounded=0;orthogonalLoop=1;jettySize=auto;html=1;entryX=1;entryY=0.5;entryDx=0;entryDy=0;fillColor=#e3c800;strokeColor=#B09500;" edge="1" parent="1" source="SYhs9_iWre-nZq4GP4J0-9" target="KVr01R96LGneUkX0vs8K-45">
          <mxGeometry relative="1" as="geometry" />
        </mxCell>
        <mxCell id="SYhs9_iWre-nZq4GP4J0-22" style="edgeStyle=orthogonalEdgeStyle;rounded=0;orthogonalLoop=1;jettySize=auto;html=1;entryX=1;entryY=0.5;entryDx=0;entryDy=0;fillColor=#e3c800;strokeColor=#B09500;" edge="1" parent="1" source="SYhs9_iWre-nZq4GP4J0-9" target="KVr01R96LGneUkX0vs8K-47">
          <mxGeometry relative="1" as="geometry" />
        </mxCell>
        <mxCell id="SYhs9_iWre-nZq4GP4J0-23" style="edgeStyle=orthogonalEdgeStyle;rounded=0;orthogonalLoop=1;jettySize=auto;html=1;entryX=1;entryY=0.5;entryDx=0;entryDy=0;fillColor=#e3c800;strokeColor=#B09500;" edge="1" parent="1" source="SYhs9_iWre-nZq4GP4J0-9" target="KVr01R96LGneUkX0vs8K-62">
          <mxGeometry relative="1" as="geometry" />
        </mxCell>
        <mxCell id="SYhs9_iWre-nZq4GP4J0-25" style="edgeStyle=orthogonalEdgeStyle;rounded=0;orthogonalLoop=1;jettySize=auto;html=1;entryX=1;entryY=0.5;entryDx=0;entryDy=0;fillColor=#e3c800;strokeColor=#B09500;" edge="1" parent="1" source="SYhs9_iWre-nZq4GP4J0-9" target="KVr01R96LGneUkX0vs8K-56">
          <mxGeometry relative="1" as="geometry" />
        </mxCell>
        <mxCell id="SYhs9_iWre-nZq4GP4J0-9" value="Administrativos" style="shape=umlActor;verticalLabelPosition=bottom;verticalAlign=top;html=1;outlineConnect=0;" vertex="1" parent="1">
          <mxGeometry x="1250" y="280" width="30" height="60" as="geometry" />
        </mxCell>
        <mxCell id="SYhs9_iWre-nZq4GP4J0-15" style="edgeStyle=orthogonalEdgeStyle;rounded=0;orthogonalLoop=1;jettySize=auto;html=1;entryX=1.007;entryY=0.667;entryDx=0;entryDy=0;entryPerimeter=0;fillColor=#e3c800;strokeColor=#B09500;" edge="1" parent="1" source="SYhs9_iWre-nZq4GP4J0-9" target="KVr01R96LGneUkX0vs8K-52">
          <mxGeometry relative="1" as="geometry" />
        </mxCell>
        <mxCell id="SYhs9_iWre-nZq4GP4J0-16" style="edgeStyle=orthogonalEdgeStyle;rounded=0;orthogonalLoop=1;jettySize=auto;html=1;entryX=0.998;entryY=0.638;entryDx=0;entryDy=0;entryPerimeter=0;fillColor=#e3c800;strokeColor=#B09500;" edge="1" parent="1" source="SYhs9_iWre-nZq4GP4J0-9" target="KVr01R96LGneUkX0vs8K-49">
          <mxGeometry relative="1" as="geometry" />
        </mxCell>
        <mxCell id="SYhs9_iWre-nZq4GP4J0-19" style="edgeStyle=orthogonalEdgeStyle;rounded=0;orthogonalLoop=1;jettySize=auto;html=1;entryX=0.998;entryY=0.626;entryDx=0;entryDy=0;entryPerimeter=0;fillColor=#e3c800;strokeColor=#B09500;" edge="1" parent="1" source="SYhs9_iWre-nZq4GP4J0-9" target="KVr01R96LGneUkX0vs8K-43">
          <mxGeometry relative="1" as="geometry" />
        </mxCell>
        <mxCell id="SYhs9_iWre-nZq4GP4J0-26" style="edgeStyle=orthogonalEdgeStyle;rounded=0;orthogonalLoop=1;jettySize=auto;html=1;entryX=1;entryY=0.714;entryDx=0;entryDy=0;entryPerimeter=0;fillColor=#a20025;strokeColor=#6F0000;" edge="1" parent="1" source="KVr01R96LGneUkX0vs8K-39" target="KVr01R96LGneUkX0vs8K-60">
          <mxGeometry relative="1" as="geometry" />
        </mxCell>
        <mxCell id="SYhs9_iWre-nZq4GP4J0-32" style="edgeStyle=orthogonalEdgeStyle;rounded=0;orthogonalLoop=1;jettySize=auto;html=1;entryX=1;entryY=0.714;entryDx=0;entryDy=0;entryPerimeter=0;fillColor=#a20025;strokeColor=#6F0000;" edge="1" parent="1" source="KVr01R96LGneUkX0vs8K-39" target="KVr01R96LGneUkX0vs8K-54">
          <mxGeometry relative="1" as="geometry" />
        </mxCell>
        <mxCell id="SYhs9_iWre-nZq4GP4J0-33" style="edgeStyle=orthogonalEdgeStyle;rounded=0;orthogonalLoop=1;jettySize=auto;html=1;entryX=1;entryY=0.714;entryDx=0;entryDy=0;entryPerimeter=0;fillColor=#a20025;strokeColor=#6F0000;" edge="1" parent="1" source="KVr01R96LGneUkX0vs8K-39" target="KVr01R96LGneUkX0vs8K-45">
          <mxGeometry relative="1" as="geometry" />
        </mxCell>
        <mxCell id="SYhs9_iWre-nZq4GP4J0-34" style="edgeStyle=orthogonalEdgeStyle;rounded=0;orthogonalLoop=1;jettySize=auto;html=1;entryX=1;entryY=0.714;entryDx=0;entryDy=0;entryPerimeter=0;fillColor=#a20025;strokeColor=#6F0000;" edge="1" parent="1" source="KVr01R96LGneUkX0vs8K-39" target="KVr01R96LGneUkX0vs8K-47">
          <mxGeometry relative="1" as="geometry" />
        </mxCell>
        <mxCell id="tgb2tIRhIyOir0SX37_R-1" style="edgeStyle=orthogonalEdgeStyle;rounded=0;orthogonalLoop=1;jettySize=auto;html=1;entryX=0.993;entryY=0.643;entryDx=0;entryDy=0;entryPerimeter=0;fillColor=#a20025;strokeColor=#6F0000;" edge="1" parent="1" source="KVr01R96LGneUkX0vs8K-39" target="KVr01R96LGneUkX0vs8K-56">
          <mxGeometry relative="1" as="geometry" />
        </mxCell>
        <mxCell id="tgb2tIRhIyOir0SX37_R-2" style="edgeStyle=orthogonalEdgeStyle;rounded=0;orthogonalLoop=1;jettySize=auto;html=1;entryX=0.993;entryY=0.343;entryDx=0;entryDy=0;entryPerimeter=0;fillColor=#a20025;strokeColor=#6F0000;" edge="1" parent="1" source="KVr01R96LGneUkX0vs8K-39" target="KVr01R96LGneUkX0vs8K-52">
          <mxGeometry relative="1" as="geometry" />
        </mxCell>
        <mxCell id="tgb2tIRhIyOir0SX37_R-5" style="edgeStyle=orthogonalEdgeStyle;rounded=0;orthogonalLoop=1;jettySize=auto;html=1;entryX=0.982;entryY=0.671;entryDx=0;entryDy=0;entryPerimeter=0;fillColor=#a20025;strokeColor=#6F0000;" edge="1" parent="1" target="KVr01R96LGneUkX0vs8K-62">
          <mxGeometry relative="1" as="geometry">
            <mxPoint x="1389" y="1199" as="sourcePoint" />
            <mxPoint x="760.0075000000002" y="1185.03" as="targetPoint" />
            <Array as="points">
              <mxPoint x="1389" y="1200" />
              <mxPoint x="790" y="1200" />
            </Array>
          </mxGeometry>
        </mxCell>
      </root>
    </mxGraphModel>
  </diagram>
  <diagram name="ADMINISTRADOR" id="LKvCWmxxrUyV7K0Li9A8">
    <mxGraphModel grid="1" page="1" gridSize="10" guides="1" tooltips="1" connect="1" arrows="1" fold="1" pageScale="1" pageWidth="827" pageHeight="1169" background="#ffffff" math="0" shadow="0">
      <root>
        <mxCell id="0" />
        <mxCell id="1" parent="0" />
        <mxCell id="HYB3am4sa2958TGSlvsn-1" value="" style="edgeStyle=orthogonalEdgeStyle;rounded=0;orthogonalLoop=1;jettySize=auto;html=1;" edge="1" parent="1" source="HYB3am4sa2958TGSlvsn-2" target="HYB3am4sa2958TGSlvsn-13">
          <mxGeometry relative="1" as="geometry" />
        </mxCell>
        <mxCell id="HYB3am4sa2958TGSlvsn-2" value="&lt;font style=&quot;vertical-align: inherit;&quot;&gt;&lt;font style=&quot;vertical-align: inherit;&quot;&gt;Administrador&lt;/font&gt;&lt;/font&gt;" style="shape=umlActor;verticalLabelPosition=bottom;verticalAlign=top;html=1;outlineConnect=0;" vertex="1" parent="1">
          <mxGeometry x="80" y="315" width="30" height="60" as="geometry" />
        </mxCell>
        <mxCell id="HYB3am4sa2958TGSlvsn-3" value="CU2&lt;div&gt;Gestionar Usuarios&lt;/div&gt;" style="ellipse;whiteSpace=wrap;html=1;strokeColor=light-dark(#FF3838,#FFFFFF);direction=west;" vertex="1" parent="1">
          <mxGeometry x="330" y="45" width="140" height="70" as="geometry" />
        </mxCell>
        <mxCell id="HYB3am4sa2958TGSlvsn-12" value="CU10&lt;div&gt;Gestionar Horarios&lt;/div&gt;" style="ellipse;whiteSpace=wrap;html=1;strokeColor=light-dark(#FF1919,#FFFFFF);" vertex="1" parent="1">
          <mxGeometry x="430" y="410" width="140" height="70" as="geometry" />
        </mxCell>
        <mxCell id="ENXFlerJP6K--CJhpI_1-17" style="edgeStyle=orthogonalEdgeStyle;rounded=0;orthogonalLoop=1;jettySize=auto;html=1;exitX=0.5;exitY=1;exitDx=0;exitDy=0;entryX=0;entryY=0.5;entryDx=0;entryDy=0;" edge="1" parent="1" source="HYB3am4sa2958TGSlvsn-13" target="ENXFlerJP6K--CJhpI_1-1">
          <mxGeometry relative="1" as="geometry" />
        </mxCell>
        <mxCell id="ENXFlerJP6K--CJhpI_1-22" value="Include" style="edgeLabel;html=1;align=center;verticalAlign=middle;resizable=0;points=[];" connectable="0" vertex="1" parent="ENXFlerJP6K--CJhpI_1-17">
          <mxGeometry x="0.3315" relative="1" as="geometry">
            <mxPoint as="offset" />
          </mxGeometry>
        </mxCell>
        <mxCell id="HYB3am4sa2958TGSlvsn-13" value="&lt;div&gt;CU1&lt;/div&gt;Iniciar sesión&amp;nbsp;&lt;div&gt;&lt;br&gt;&lt;/div&gt;" style="ellipse;whiteSpace=wrap;html=1;strokeColor=light-dark(#FF0000,#FFFFFF);" vertex="1" parent="1">
          <mxGeometry x="190" y="310" width="140" height="70" as="geometry" />
        </mxCell>
        <mxCell id="HYB3am4sa2958TGSlvsn-20" value="" style="endArrow=block;endSize=16;endFill=0;html=1;rounded=0;exitX=0.371;exitY=0.003;exitDx=0;exitDy=0;exitPerimeter=0;" edge="1" parent="1" source="HYB3am4sa2958TGSlvsn-13" target="HYB3am4sa2958TGSlvsn-3">
          <mxGeometry x="-1" y="40" width="160" relative="1" as="geometry">
            <mxPoint x="150" y="210" as="sourcePoint" />
            <mxPoint x="310" y="210" as="targetPoint" />
            <Array as="points">
              <mxPoint x="240" y="80" />
            </Array>
            <mxPoint x="30" y="39" as="offset" />
          </mxGeometry>
        </mxCell>
        <mxCell id="ENXFlerJP6K--CJhpI_1-7" value="Include" style="edgeLabel;html=1;align=center;verticalAlign=middle;resizable=0;points=[];" connectable="0" vertex="1" parent="HYB3am4sa2958TGSlvsn-20">
          <mxGeometry x="-0.11" y="1" relative="1" as="geometry">
            <mxPoint as="offset" />
          </mxGeometry>
        </mxCell>
        <mxCell id="HYB3am4sa2958TGSlvsn-24" value="Include" style="endArrow=block;endSize=16;endFill=0;html=1;rounded=0;entryX=0;entryY=0.5;entryDx=0;entryDy=0;exitX=1;exitY=0.5;exitDx=0;exitDy=0;" edge="1" parent="1" source="HYB3am4sa2958TGSlvsn-12" target="qvKli63EzWPMA-Ad3EUR-32">
          <mxGeometry width="160" relative="1" as="geometry">
            <mxPoint x="688" y="460" as="sourcePoint" />
            <mxPoint x="686.9399999999998" y="397.97" as="targetPoint" />
          </mxGeometry>
        </mxCell>
        <mxCell id="HYB3am4sa2958TGSlvsn-46" value="Crear&lt;div&gt;modificar&lt;/div&gt;&lt;div&gt;consultar&lt;/div&gt;&lt;div&gt;deshabilitar&amp;nbsp;&lt;/div&gt;&lt;div&gt;eliminar&lt;/div&gt;" style="ellipse;whiteSpace=wrap;html=1;" vertex="1" parent="1">
          <mxGeometry x="310" y="180" width="130" height="90" as="geometry" />
        </mxCell>
        <mxCell id="HYB3am4sa2958TGSlvsn-69" value="&lt;div&gt;CU09&lt;/div&gt;Gestionar certificados laborales" style="ellipse;whiteSpace=wrap;html=1;strokeColor=light-dark(#FF2828,#FFFFFF);" vertex="1" parent="1">
          <mxGeometry x="1497" y="250" width="120" height="80" as="geometry" />
        </mxCell>
        <mxCell id="HYB3am4sa2958TGSlvsn-70" value="&lt;font style=&quot;vertical-align: inherit;&quot;&gt;Crear&lt;/font&gt;&lt;div&gt;&lt;font style=&quot;vertical-align: inherit;&quot;&gt;Modificar&lt;/font&gt;&lt;br&gt;&lt;font style=&quot;vertical-align: inherit;&quot;&gt;Consultar&lt;/font&gt;&lt;/div&gt;&lt;div&gt;&lt;font style=&quot;vertical-align: inherit;&quot;&gt;deshabilitar&amp;nbsp;&lt;/font&gt;&lt;/div&gt;&lt;div&gt;&lt;font style=&quot;vertical-align: inherit;&quot;&gt;Eliminar&amp;nbsp;&lt;/font&gt;&lt;/div&gt;" style="ellipse;whiteSpace=wrap;html=1;" vertex="1" parent="1">
          <mxGeometry x="697" y="650" width="120" height="80" as="geometry" />
        </mxCell>
        <mxCell id="HYB3am4sa2958TGSlvsn-82" value="&lt;div&gt;CU03&lt;/div&gt;Gestionar vacantes" style="ellipse;whiteSpace=wrap;html=1;strokeColor=light-dark(#FF0F0F,#FFFFFF);" vertex="1" parent="1">
          <mxGeometry x="450" y="245" width="120" height="80" as="geometry" />
        </mxCell>
        <mxCell id="HYB3am4sa2958TGSlvsn-84" value="Crear&lt;div&gt;Modificar&lt;br&gt;Consultar&lt;/div&gt;&lt;div&gt;&lt;span style=&quot;background-color: transparent; color: light-dark(rgb(0, 0, 0), rgb(255, 255, 255));&quot;&gt;Eliminar&amp;nbsp;&lt;/span&gt;&lt;/div&gt;&lt;div&gt;&lt;span style=&quot;background-color: transparent; color: light-dark(rgb(0, 0, 0), rgb(255, 255, 255));&quot;&gt;Deshabilitar&lt;/span&gt;&lt;/div&gt;" style="ellipse;whiteSpace=wrap;html=1;" vertex="1" parent="1">
          <mxGeometry x="540" y="500" width="140" height="85" as="geometry" />
        </mxCell>
        <mxCell id="qvKli63EzWPMA-Ad3EUR-4" value="CU05&lt;div&gt;Gestionar contratación&lt;/div&gt;" style="ellipse;whiteSpace=wrap;html=1;strokeColor=light-dark(#FF0000,#FFFFFF);" vertex="1" parent="1">
          <mxGeometry x="650" y="250" width="140" height="70" as="geometry" />
        </mxCell>
        <mxCell id="qvKli63EzWPMA-Ad3EUR-6" value="" style="endArrow=classic;html=1;rounded=0;exitX=0.5;exitY=1;exitDx=0;exitDy=0;entryX=0.5;entryY=0;entryDx=0;entryDy=0;" edge="1" parent="1" source="qvKli63EzWPMA-Ad3EUR-32" target="qvKli63EzWPMA-Ad3EUR-34">
          <mxGeometry width="50" height="50" relative="1" as="geometry">
            <mxPoint x="629.9974746830585" y="459.99873734152925" as="sourcePoint" />
            <mxPoint x="950" y="590" as="targetPoint" />
            <Array as="points" />
          </mxGeometry>
        </mxCell>
        <mxCell id="qvKli63EzWPMA-Ad3EUR-7" value="extends" style="edgeLabel;html=1;align=center;verticalAlign=middle;resizable=0;points=[];" connectable="0" vertex="1" parent="qvKli63EzWPMA-Ad3EUR-6">
          <mxGeometry x="-0.2" relative="1" as="geometry">
            <mxPoint as="offset" />
          </mxGeometry>
        </mxCell>
        <mxCell id="ENXFlerJP6K--CJhpI_1-23" style="edgeStyle=orthogonalEdgeStyle;rounded=0;orthogonalLoop=1;jettySize=auto;html=1;exitX=0.5;exitY=1;exitDx=0;exitDy=0;entryX=1;entryY=0.5;entryDx=0;entryDy=0;" edge="1" parent="1" source="qvKli63EzWPMA-Ad3EUR-8" target="ENXFlerJP6K--CJhpI_1-1">
          <mxGeometry relative="1" as="geometry" />
        </mxCell>
        <mxCell id="ENXFlerJP6K--CJhpI_1-24" value="Include" style="edgeLabel;html=1;align=center;verticalAlign=middle;resizable=0;points=[];" connectable="0" vertex="1" parent="ENXFlerJP6K--CJhpI_1-23">
          <mxGeometry x="-0.2515" y="2" relative="1" as="geometry">
            <mxPoint as="offset" />
          </mxGeometry>
        </mxCell>
        <mxCell id="qvKli63EzWPMA-Ad3EUR-8" value="&lt;div&gt;CU04&lt;/div&gt;Gestionar contratos" style="ellipse;whiteSpace=wrap;html=1;strokeColor=light-dark(#FF0505,#FFFFFF);" vertex="1" parent="1">
          <mxGeometry x="1277" y="250" width="120" height="80" as="geometry" />
        </mxCell>
        <mxCell id="qvKli63EzWPMA-Ad3EUR-9" value="Include" style="endArrow=block;endSize=16;endFill=0;html=1;rounded=0;entryX=0;entryY=0.5;entryDx=0;entryDy=0;exitX=1;exitY=0.5;exitDx=0;exitDy=0;" edge="1" parent="1" source="HYB3am4sa2958TGSlvsn-82" target="qvKli63EzWPMA-Ad3EUR-4">
          <mxGeometry width="160" relative="1" as="geometry">
            <mxPoint x="763.94" y="375.0100000000001" as="sourcePoint" />
            <mxPoint x="966" y="200" as="targetPoint" />
          </mxGeometry>
        </mxCell>
        <mxCell id="qvKli63EzWPMA-Ad3EUR-10" value="Crear&lt;div&gt;Modificar&lt;br&gt;Consultar&lt;/div&gt;&lt;div&gt;deshabilitar&amp;nbsp;&lt;/div&gt;&lt;div&gt;Eliminar&amp;nbsp;&lt;/div&gt;" style="ellipse;whiteSpace=wrap;html=1;" vertex="1" parent="1">
          <mxGeometry x="1267" y="110" width="140" height="85" as="geometry" />
        </mxCell>
        <mxCell id="qvKli63EzWPMA-Ad3EUR-12" value="" style="endArrow=classic;html=1;rounded=0;exitX=0.5;exitY=0;exitDx=0;exitDy=0;entryX=0.5;entryY=1;entryDx=0;entryDy=0;" edge="1" parent="1" source="qvKli63EzWPMA-Ad3EUR-8" target="qvKli63EzWPMA-Ad3EUR-10">
          <mxGeometry width="50" height="50" relative="1" as="geometry">
            <mxPoint x="1396.5" y="380" as="sourcePoint" />
            <mxPoint x="1405" y="320" as="targetPoint" />
            <Array as="points" />
          </mxGeometry>
        </mxCell>
        <mxCell id="qvKli63EzWPMA-Ad3EUR-13" value="extends" style="edgeLabel;html=1;align=center;verticalAlign=middle;resizable=0;points=[];" connectable="0" vertex="1" parent="qvKli63EzWPMA-Ad3EUR-12">
          <mxGeometry x="-0.2" relative="1" as="geometry">
            <mxPoint as="offset" />
          </mxGeometry>
        </mxCell>
        <mxCell id="qvKli63EzWPMA-Ad3EUR-15" value="Include" style="endArrow=block;endSize=16;endFill=0;html=1;rounded=0;exitX=1;exitY=0.5;exitDx=0;exitDy=0;" edge="1" parent="1" source="qvKli63EzWPMA-Ad3EUR-4" target="qvKli63EzWPMA-Ad3EUR-8">
          <mxGeometry width="160" relative="1" as="geometry">
            <mxPoint x="760" y="370" as="sourcePoint" />
            <mxPoint x="1060" y="410" as="targetPoint" />
          </mxGeometry>
        </mxCell>
        <mxCell id="qvKli63EzWPMA-Ad3EUR-16" value="&lt;div&gt;&lt;font style=&quot;vertical-align: inherit;&quot;&gt;&lt;font style=&quot;vertical-align: inherit;&quot;&gt;Modificar &lt;/font&gt;&lt;/font&gt;&lt;br&gt;&lt;font style=&quot;vertical-align: inherit;&quot;&gt;&lt;font style=&quot;vertical-align: inherit;&quot;&gt;Consultar&lt;/font&gt;&lt;/font&gt;&lt;/div&gt;&lt;div&gt;&lt;font style=&quot;vertical-align: inherit;&quot;&gt;&lt;font style=&quot;vertical-align: inherit;&quot;&gt;deshabilitar&amp;nbsp;&lt;/font&gt;&lt;/font&gt;&lt;/div&gt;&lt;div&gt;&lt;font style=&quot;vertical-align: inherit;&quot;&gt;&lt;font style=&quot;vertical-align: inherit;&quot;&gt;Eliminar&amp;nbsp;&lt;/font&gt;&lt;/font&gt;&lt;/div&gt;" style="ellipse;whiteSpace=wrap;html=1;" vertex="1" parent="1">
          <mxGeometry x="697" y="100" width="140" height="85" as="geometry" />
        </mxCell>
        <mxCell id="qvKli63EzWPMA-Ad3EUR-17" value="" style="endArrow=classic;html=1;rounded=0;entryX=0.457;entryY=1;entryDx=0;entryDy=0;entryPerimeter=0;exitX=0.5;exitY=0;exitDx=0;exitDy=0;" edge="1" parent="1" source="qvKli63EzWPMA-Ad3EUR-4" target="qvKli63EzWPMA-Ad3EUR-16">
          <mxGeometry width="50" height="50" relative="1" as="geometry">
            <mxPoint x="810" y="190" as="sourcePoint" />
            <mxPoint x="1128" y="518" as="targetPoint" />
            <Array as="points" />
          </mxGeometry>
        </mxCell>
        <mxCell id="qvKli63EzWPMA-Ad3EUR-18" value="extends" style="edgeLabel;html=1;align=center;verticalAlign=middle;resizable=0;points=[];" connectable="0" vertex="1" parent="qvKli63EzWPMA-Ad3EUR-17">
          <mxGeometry x="-0.2" relative="1" as="geometry">
            <mxPoint as="offset" />
          </mxGeometry>
        </mxCell>
        <mxCell id="qvKli63EzWPMA-Ad3EUR-25" value="Crear&lt;div&gt;Consultar&lt;/div&gt;&lt;div&gt;deshabilitar&amp;nbsp;&lt;/div&gt;&lt;div&gt;Eliminar&amp;nbsp;&lt;/div&gt;" style="ellipse;whiteSpace=wrap;html=1;" vertex="1" parent="1">
          <mxGeometry x="1487" y="120" width="140" height="85" as="geometry" />
        </mxCell>
        <mxCell id="geej2X_8l5OXMuS0W6Iz-1" style="edgeStyle=orthogonalEdgeStyle;rounded=0;orthogonalLoop=1;jettySize=auto;html=1;entryX=1;entryY=0;entryDx=0;entryDy=0;exitX=0.5;exitY=1;exitDx=0;exitDy=0;" edge="1" parent="1" source="qvKli63EzWPMA-Ad3EUR-28" target="ENXFlerJP6K--CJhpI_1-1">
          <mxGeometry relative="1" as="geometry" />
        </mxCell>
        <mxCell id="geej2X_8l5OXMuS0W6Iz-2" value="Include" style="edgeLabel;html=1;align=center;verticalAlign=middle;resizable=0;points=[];" connectable="0" vertex="1" parent="geej2X_8l5OXMuS0W6Iz-1">
          <mxGeometry x="0.0643" y="-1" relative="1" as="geometry">
            <mxPoint as="offset" />
          </mxGeometry>
        </mxCell>
        <mxCell id="qvKli63EzWPMA-Ad3EUR-28" value="CU08&lt;div&gt;Gestionar ingresos&lt;/div&gt;" style="ellipse;whiteSpace=wrap;html=1;strokeColor=light-dark(#FF0000,#FFFFFF);" vertex="1" parent="1">
          <mxGeometry x="910" y="410" width="140" height="70" as="geometry" />
        </mxCell>
        <mxCell id="qvKli63EzWPMA-Ad3EUR-29" value="extends" style="endArrow=block;endSize=16;endFill=0;html=1;rounded=0;entryX=0;entryY=1;entryDx=0;entryDy=0;exitX=1;exitY=0;exitDx=0;exitDy=0;" edge="1" parent="1" source="qvKli63EzWPMA-Ad3EUR-28" target="qvKli63EzWPMA-Ad3EUR-30">
          <mxGeometry width="160" relative="1" as="geometry">
            <mxPoint x="1060" y="455" as="sourcePoint" />
            <mxPoint x="1628" y="980" as="targetPoint" />
            <Array as="points" />
          </mxGeometry>
        </mxCell>
        <mxCell id="qvKli63EzWPMA-Ad3EUR-30" value="&lt;font style=&quot;vertical-align: inherit;&quot;&gt;Crear&lt;/font&gt;&lt;div&gt;&lt;font style=&quot;vertical-align: inherit;&quot;&gt;Modificar&lt;/font&gt;&lt;br&gt;&lt;font style=&quot;vertical-align: inherit;&quot;&gt;Consultar&lt;/font&gt;&lt;/div&gt;&lt;div&gt;&lt;font style=&quot;vertical-align: inherit;&quot;&gt;deshabilitar&amp;nbsp;&lt;/font&gt;&lt;/div&gt;&lt;div&gt;&lt;font style=&quot;vertical-align: inherit;&quot;&gt;Eliminar&amp;nbsp;&lt;/font&gt;&lt;/div&gt;" style="ellipse;whiteSpace=wrap;html=1;" vertex="1" parent="1">
          <mxGeometry x="1050" y="300" width="140" height="70" as="geometry" />
        </mxCell>
        <mxCell id="qvKli63EzWPMA-Ad3EUR-32" value="CU11&lt;div&gt;Gestionar Horas extras&lt;/div&gt;" style="ellipse;whiteSpace=wrap;html=1;strokeColor=light-dark(#FF3B00,#FFFFFF);" vertex="1" parent="1">
          <mxGeometry x="687" y="410" width="140" height="70" as="geometry" />
        </mxCell>
        <mxCell id="qvKli63EzWPMA-Ad3EUR-33" value="extends" style="endArrow=block;endSize=16;endFill=0;html=1;rounded=0;entryX=0;entryY=0;entryDx=0;entryDy=0;" edge="1" parent="1" source="HYB3am4sa2958TGSlvsn-12" target="HYB3am4sa2958TGSlvsn-84">
          <mxGeometry width="160" relative="1" as="geometry">
            <mxPoint x="507" y="480" as="sourcePoint" />
            <mxPoint x="687" y="600" as="targetPoint" />
          </mxGeometry>
        </mxCell>
        <mxCell id="qvKli63EzWPMA-Ad3EUR-34" value="&lt;font style=&quot;vertical-align: inherit;&quot;&gt;Crear&lt;/font&gt;&lt;div&gt;&lt;font style=&quot;vertical-align: inherit;&quot;&gt;Modificar&lt;/font&gt;&lt;br&gt;&lt;font style=&quot;vertical-align: inherit;&quot;&gt;Consultar&lt;/font&gt;&lt;/div&gt;&lt;div&gt;&lt;font style=&quot;vertical-align: inherit;&quot;&gt;deshabilitar&amp;nbsp;&lt;/font&gt;&lt;/div&gt;&lt;div&gt;&lt;font style=&quot;vertical-align: inherit;&quot;&gt;Eliminar&amp;nbsp;&lt;/font&gt;&lt;/div&gt;" style="ellipse;whiteSpace=wrap;html=1;" vertex="1" parent="1">
          <mxGeometry x="687" y="550" width="140" height="70" as="geometry" />
        </mxCell>
        <mxCell id="qvKli63EzWPMA-Ad3EUR-37" value="" style="endArrow=classic;html=1;rounded=0;exitX=0.5;exitY=0;exitDx=0;exitDy=0;" edge="1" parent="1" source="HYB3am4sa2958TGSlvsn-69" target="qvKli63EzWPMA-Ad3EUR-25">
          <mxGeometry width="50" height="50" relative="1" as="geometry">
            <mxPoint x="1667" y="460" as="sourcePoint" />
            <mxPoint x="1565" y="595" as="targetPoint" />
            <Array as="points" />
          </mxGeometry>
        </mxCell>
        <mxCell id="qvKli63EzWPMA-Ad3EUR-38" value="extends" style="edgeLabel;html=1;align=center;verticalAlign=middle;resizable=0;points=[];" connectable="0" vertex="1" parent="qvKli63EzWPMA-Ad3EUR-37">
          <mxGeometry x="-0.2" relative="1" as="geometry">
            <mxPoint as="offset" />
          </mxGeometry>
        </mxCell>
        <mxCell id="qvKli63EzWPMA-Ad3EUR-42" value="" style="endArrow=classic;html=1;rounded=0;exitX=0.5;exitY=0;exitDx=0;exitDy=0;entryX=0.5;entryY=1;entryDx=0;entryDy=0;" edge="1" parent="1" source="HYB3am4sa2958TGSlvsn-82" target="qvKli63EzWPMA-Ad3EUR-5">
          <mxGeometry width="50" height="50" relative="1" as="geometry">
            <mxPoint x="570" y="360" as="sourcePoint" />
            <mxPoint x="600" y="160" as="targetPoint" />
            <Array as="points" />
          </mxGeometry>
        </mxCell>
        <mxCell id="geej2X_8l5OXMuS0W6Iz-3" value="extends" style="edgeLabel;html=1;align=center;verticalAlign=middle;resizable=0;points=[];" connectable="0" vertex="1" parent="qvKli63EzWPMA-Ad3EUR-42">
          <mxGeometry x="-0.2882" y="1" relative="1" as="geometry">
            <mxPoint as="offset" />
          </mxGeometry>
        </mxCell>
        <mxCell id="qvKli63EzWPMA-Ad3EUR-44" value="" style="endArrow=classic;html=1;rounded=0;exitX=0.989;exitY=0.733;exitDx=0;exitDy=0;exitPerimeter=0;" edge="1" parent="1" source="ENXFlerJP6K--CJhpI_1-2" target="HYB3am4sa2958TGSlvsn-70">
          <mxGeometry width="50" height="50" relative="1" as="geometry">
            <mxPoint x="550.8800093150357" y="649.2789255904984" as="sourcePoint" />
            <mxPoint x="540" y="735" as="targetPoint" />
            <Array as="points" />
          </mxGeometry>
        </mxCell>
        <mxCell id="qvKli63EzWPMA-Ad3EUR-45" value="extends" style="edgeLabel;html=1;align=center;verticalAlign=middle;resizable=0;points=[];" connectable="0" vertex="1" parent="qvKli63EzWPMA-Ad3EUR-44">
          <mxGeometry x="-0.2" relative="1" as="geometry">
            <mxPoint x="-22" as="offset" />
          </mxGeometry>
        </mxCell>
        <mxCell id="yPaVoE1Z7gKKKQLb0z9U-1" value="Include" style="endArrow=block;endSize=16;endFill=0;html=1;rounded=0;exitX=1;exitY=0.5;exitDx=0;exitDy=0;entryX=0;entryY=0.5;entryDx=0;entryDy=0;" edge="1" parent="1" source="qvKli63EzWPMA-Ad3EUR-8" target="HYB3am4sa2958TGSlvsn-69">
          <mxGeometry width="160" relative="1" as="geometry">
            <mxPoint x="1414" y="400" as="sourcePoint" />
            <mxPoint x="1377" y="482" as="targetPoint" />
          </mxGeometry>
        </mxCell>
        <mxCell id="yPaVoE1Z7gKKKQLb0z9U-2" value="Include" style="endArrow=block;endSize=16;endFill=0;html=1;rounded=0;exitX=1;exitY=0.5;exitDx=0;exitDy=0;entryX=0;entryY=0.5;entryDx=0;entryDy=0;" edge="1" parent="1" source="qvKli63EzWPMA-Ad3EUR-32" target="qvKli63EzWPMA-Ad3EUR-28">
          <mxGeometry width="160" relative="1" as="geometry">
            <mxPoint x="1137" y="700" as="sourcePoint" />
            <mxPoint x="880" y="540" as="targetPoint" />
          </mxGeometry>
        </mxCell>
        <mxCell id="qFRlQNLXzz3E-UJ25iCP-6" value="" style="endArrow=classic;html=1;rounded=0;exitX=1;exitY=0;exitDx=0;exitDy=0;entryX=0;entryY=0.5;entryDx=0;entryDy=0;" edge="1" parent="1" source="HYB3am4sa2958TGSlvsn-13" target="HYB3am4sa2958TGSlvsn-82">
          <mxGeometry width="50" height="50" relative="1" as="geometry">
            <mxPoint x="330" y="460" as="sourcePoint" />
            <mxPoint x="380" y="410" as="targetPoint" />
          </mxGeometry>
        </mxCell>
        <mxCell id="ENXFlerJP6K--CJhpI_1-8" value="Include" style="edgeLabel;html=1;align=center;verticalAlign=middle;resizable=0;points=[];" connectable="0" vertex="1" parent="qFRlQNLXzz3E-UJ25iCP-6">
          <mxGeometry x="-0.2066" y="3" relative="1" as="geometry">
            <mxPoint as="offset" />
          </mxGeometry>
        </mxCell>
        <mxCell id="qFRlQNLXzz3E-UJ25iCP-7" value="" style="endArrow=classic;html=1;rounded=0;exitX=1;exitY=1;exitDx=0;exitDy=0;entryX=0;entryY=0.5;entryDx=0;entryDy=0;" edge="1" parent="1" source="HYB3am4sa2958TGSlvsn-13" target="HYB3am4sa2958TGSlvsn-12">
          <mxGeometry width="50" height="50" relative="1" as="geometry">
            <mxPoint x="520" y="380" as="sourcePoint" />
            <mxPoint x="570" y="330" as="targetPoint" />
          </mxGeometry>
        </mxCell>
        <mxCell id="ENXFlerJP6K--CJhpI_1-9" value="Include" style="edgeLabel;html=1;align=center;verticalAlign=middle;resizable=0;points=[];" connectable="0" vertex="1" parent="qFRlQNLXzz3E-UJ25iCP-7">
          <mxGeometry x="-0.166" y="-5" relative="1" as="geometry">
            <mxPoint x="1" as="offset" />
          </mxGeometry>
        </mxCell>
        <mxCell id="o3yLudK1PsccMa6rE_4y-1" value="" style="endArrow=classic;html=1;rounded=0;exitX=0.615;exitY=1.011;exitDx=0;exitDy=0;exitPerimeter=0;entryX=0;entryY=0;entryDx=0;entryDy=0;" edge="1" parent="1" source="HYB3am4sa2958TGSlvsn-13" target="ENXFlerJP6K--CJhpI_1-2">
          <mxGeometry width="50" height="50" relative="1" as="geometry">
            <mxPoint x="300" y="520" as="sourcePoint" />
            <mxPoint x="450" y="620" as="targetPoint" />
          </mxGeometry>
        </mxCell>
        <mxCell id="ENXFlerJP6K--CJhpI_1-10" value="Include" style="edgeLabel;html=1;align=center;verticalAlign=middle;resizable=0;points=[];" connectable="0" vertex="1" parent="o3yLudK1PsccMa6rE_4y-1">
          <mxGeometry x="-0.1048" y="-3" relative="1" as="geometry">
            <mxPoint x="-1" as="offset" />
          </mxGeometry>
        </mxCell>
        <mxCell id="3iv6mnQwqCRs6l5-fsLF-2" value="" style="endArrow=classic;html=1;rounded=0;exitX=0.5;exitY=0;exitDx=0;exitDy=0;" edge="1" parent="1" source="HYB3am4sa2958TGSlvsn-3" target="HYB3am4sa2958TGSlvsn-46">
          <mxGeometry width="50" height="50" relative="1" as="geometry">
            <mxPoint x="340" y="140" as="sourcePoint" />
            <mxPoint x="345" y="185" as="targetPoint" />
            <Array as="points" />
          </mxGeometry>
        </mxCell>
        <mxCell id="3iv6mnQwqCRs6l5-fsLF-3" value="extends" style="edgeLabel;html=1;align=center;verticalAlign=middle;resizable=0;points=[];" connectable="0" vertex="1" parent="3iv6mnQwqCRs6l5-fsLF-2">
          <mxGeometry x="-0.2" relative="1" as="geometry">
            <mxPoint as="offset" />
          </mxGeometry>
        </mxCell>
        <mxCell id="qvKli63EzWPMA-Ad3EUR-5" value="Crear&lt;div&gt;Modificar&lt;br&gt;Consultar&lt;/div&gt;&lt;div&gt;deshabilitar&amp;nbsp;&lt;/div&gt;&lt;div&gt;Eliminar&amp;nbsp;&lt;/div&gt;" style="ellipse;whiteSpace=wrap;html=1;" vertex="1" parent="1">
          <mxGeometry x="500" y="60" width="140" height="85" as="geometry" />
        </mxCell>
        <mxCell id="ENXFlerJP6K--CJhpI_1-1" value="&lt;div&gt;CU06&lt;/div&gt;Gestionar reportes" style="ellipse;whiteSpace=wrap;html=1;strokeColor=light-dark(#FF0F0F,#FFFFFF);" vertex="1" parent="1">
          <mxGeometry x="1140" y="880" width="120" height="80" as="geometry" />
        </mxCell>
        <mxCell id="ENXFlerJP6K--CJhpI_1-20" style="edgeStyle=orthogonalEdgeStyle;rounded=0;orthogonalLoop=1;jettySize=auto;html=1;entryX=0;entryY=0;entryDx=0;entryDy=0;" edge="1" parent="1" source="ENXFlerJP6K--CJhpI_1-2" target="ENXFlerJP6K--CJhpI_1-1">
          <mxGeometry relative="1" as="geometry">
            <mxPoint x="1150" y="880" as="targetPoint" />
            <Array as="points">
              <mxPoint x="500" y="892" />
            </Array>
          </mxGeometry>
        </mxCell>
        <mxCell id="ENXFlerJP6K--CJhpI_1-21" value="Include" style="edgeLabel;html=1;align=center;verticalAlign=middle;resizable=0;points=[];" connectable="0" vertex="1" parent="ENXFlerJP6K--CJhpI_1-20">
          <mxGeometry x="0.0534" y="2" relative="1" as="geometry">
            <mxPoint as="offset" />
          </mxGeometry>
        </mxCell>
        <mxCell id="ENXFlerJP6K--CJhpI_1-2" value="&lt;div&gt;CU07&lt;/div&gt;Gestionar solicitudes" style="ellipse;whiteSpace=wrap;html=1;strokeColor=light-dark(#FF0000,#FFFFFF);" vertex="1" parent="1">
          <mxGeometry x="440" y="585" width="120" height="80" as="geometry" />
        </mxCell>
        <mxCell id="ENXFlerJP6K--CJhpI_1-4" value="Crear&lt;div&gt;Modificar&lt;br&gt;Consultar&lt;/div&gt;&lt;div&gt;deshabilitar&amp;nbsp;&lt;/div&gt;&lt;div&gt;Eliminar&amp;nbsp;&lt;/div&gt;" style="ellipse;whiteSpace=wrap;html=1;direction=west;" vertex="1" parent="1">
          <mxGeometry x="959" y="730" width="140" height="85" as="geometry" />
        </mxCell>
        <mxCell id="geej2X_8l5OXMuS0W6Iz-4" style="edgeStyle=orthogonalEdgeStyle;rounded=0;orthogonalLoop=1;jettySize=auto;html=1;exitX=0.5;exitY=0;exitDx=0;exitDy=0;" edge="1" parent="1" source="ENXFlerJP6K--CJhpI_1-1">
          <mxGeometry relative="1" as="geometry">
            <mxPoint x="1100" y="770" as="targetPoint" />
            <Array as="points">
              <mxPoint x="1200" y="770" />
            </Array>
          </mxGeometry>
        </mxCell>
        <mxCell id="geej2X_8l5OXMuS0W6Iz-6" value="extends" style="edgeLabel;html=1;align=center;verticalAlign=middle;resizable=0;points=[];" connectable="0" vertex="1" parent="geej2X_8l5OXMuS0W6Iz-4">
          <mxGeometry x="-0.2601" y="3" relative="1" as="geometry">
            <mxPoint as="offset" />
          </mxGeometry>
        </mxCell>
      </root>
    </mxGraphModel>
  </diagram>
  <diagram id="QMB4SfDt6vAQgIlFoHhR" name="ADMINISTRATIVOS">
    <mxGraphModel grid="1" page="1" gridSize="10" guides="1" tooltips="1" connect="1" arrows="1" fold="1" pageScale="1" pageWidth="827" pageHeight="1169" math="0" shadow="0">
      <root>
        <mxCell id="0" />
        <mxCell id="1" parent="0" />
        <mxCell id="lJCfycRy3kBcwWtuXt4Q-1" value="" style="edgeStyle=orthogonalEdgeStyle;rounded=0;orthogonalLoop=1;jettySize=auto;html=1;" edge="1" parent="1" source="lJCfycRy3kBcwWtuXt4Q-2" target="lJCfycRy3kBcwWtuXt4Q-7">
          <mxGeometry relative="1" as="geometry" />
        </mxCell>
        <mxCell id="lJCfycRy3kBcwWtuXt4Q-2" value="&lt;font style=&quot;vertical-align: inherit;&quot;&gt;&lt;font style=&quot;vertical-align: inherit;&quot;&gt;Administrativos&lt;/font&gt;&lt;/font&gt;" style="shape=umlActor;verticalLabelPosition=bottom;verticalAlign=top;html=1;outlineConnect=0;" vertex="1" parent="1">
          <mxGeometry x="80" y="315" width="30" height="60" as="geometry" />
        </mxCell>
        <mxCell id="lJCfycRy3kBcwWtuXt4Q-3" value="CU2&lt;div&gt;Gestionar Usuarios&lt;/div&gt;" style="ellipse;whiteSpace=wrap;html=1;strokeColor=light-dark(#FF3838,#FFFFFF);direction=west;" vertex="1" parent="1">
          <mxGeometry x="330" y="45" width="140" height="70" as="geometry" />
        </mxCell>
        <mxCell id="lJCfycRy3kBcwWtuXt4Q-4" value="CU10&lt;div&gt;Gestionar Horarios&lt;/div&gt;" style="ellipse;whiteSpace=wrap;html=1;strokeColor=light-dark(#FF1919,#FFFFFF);" vertex="1" parent="1">
          <mxGeometry x="430" y="410" width="140" height="70" as="geometry" />
        </mxCell>
        <mxCell id="lJCfycRy3kBcwWtuXt4Q-5" style="edgeStyle=orthogonalEdgeStyle;rounded=0;orthogonalLoop=1;jettySize=auto;html=1;exitX=0.5;exitY=1;exitDx=0;exitDy=0;entryX=0;entryY=0.5;entryDx=0;entryDy=0;" edge="1" parent="1" source="lJCfycRy3kBcwWtuXt4Q-7" target="lJCfycRy3kBcwWtuXt4Q-56">
          <mxGeometry relative="1" as="geometry" />
        </mxCell>
        <mxCell id="lJCfycRy3kBcwWtuXt4Q-6" value="Include" style="edgeLabel;html=1;align=center;verticalAlign=middle;resizable=0;points=[];" connectable="0" vertex="1" parent="lJCfycRy3kBcwWtuXt4Q-5">
          <mxGeometry x="0.3315" relative="1" as="geometry">
            <mxPoint as="offset" />
          </mxGeometry>
        </mxCell>
        <mxCell id="lJCfycRy3kBcwWtuXt4Q-7" value="&lt;div&gt;CU1&lt;/div&gt;Iniciar sesión&amp;nbsp;&lt;div&gt;&lt;br&gt;&lt;/div&gt;" style="ellipse;whiteSpace=wrap;html=1;strokeColor=light-dark(#FF0000,#FFFFFF);" vertex="1" parent="1">
          <mxGeometry x="190" y="310" width="140" height="70" as="geometry" />
        </mxCell>
        <mxCell id="lJCfycRy3kBcwWtuXt4Q-8" value="" style="endArrow=block;endSize=16;endFill=0;html=1;rounded=0;exitX=0.371;exitY=0.003;exitDx=0;exitDy=0;exitPerimeter=0;" edge="1" parent="1" source="lJCfycRy3kBcwWtuXt4Q-7" target="lJCfycRy3kBcwWtuXt4Q-3">
          <mxGeometry x="-1" y="40" width="160" relative="1" as="geometry">
            <mxPoint x="150" y="210" as="sourcePoint" />
            <mxPoint x="310" y="210" as="targetPoint" />
            <Array as="points">
              <mxPoint x="240" y="80" />
            </Array>
            <mxPoint x="30" y="39" as="offset" />
          </mxGeometry>
        </mxCell>
        <mxCell id="lJCfycRy3kBcwWtuXt4Q-9" value="Include" style="edgeLabel;html=1;align=center;verticalAlign=middle;resizable=0;points=[];" connectable="0" vertex="1" parent="lJCfycRy3kBcwWtuXt4Q-8">
          <mxGeometry x="-0.11" y="1" relative="1" as="geometry">
            <mxPoint as="offset" />
          </mxGeometry>
        </mxCell>
        <mxCell id="lJCfycRy3kBcwWtuXt4Q-10" value="Include" style="endArrow=block;endSize=16;endFill=0;html=1;rounded=0;entryX=0;entryY=0.5;entryDx=0;entryDy=0;exitX=1;exitY=0.5;exitDx=0;exitDy=0;" edge="1" parent="1" source="lJCfycRy3kBcwWtuXt4Q-4" target="lJCfycRy3kBcwWtuXt4Q-36">
          <mxGeometry width="160" relative="1" as="geometry">
            <mxPoint x="688" y="460" as="sourcePoint" />
            <mxPoint x="686.9399999999998" y="397.97" as="targetPoint" />
          </mxGeometry>
        </mxCell>
        <mxCell id="lJCfycRy3kBcwWtuXt4Q-11" value="Crear&lt;div&gt;modificar&lt;/div&gt;&lt;div&gt;consultar&lt;/div&gt;&lt;div&gt;deshabilitar&amp;nbsp;&lt;/div&gt;" style="ellipse;whiteSpace=wrap;html=1;" vertex="1" parent="1">
          <mxGeometry x="310" y="180" width="130" height="90" as="geometry" />
        </mxCell>
        <mxCell id="lJCfycRy3kBcwWtuXt4Q-12" value="&lt;div&gt;CU09&lt;/div&gt;Gestionar certificados laborales" style="ellipse;whiteSpace=wrap;html=1;strokeColor=light-dark(#FF2828,#FFFFFF);" vertex="1" parent="1">
          <mxGeometry x="1497" y="250" width="120" height="80" as="geometry" />
        </mxCell>
        <mxCell id="lJCfycRy3kBcwWtuXt4Q-13" value="&lt;font style=&quot;vertical-align: inherit;&quot;&gt;Crear&lt;/font&gt;&lt;div&gt;&lt;font style=&quot;vertical-align: inherit;&quot;&gt;Modificar&lt;/font&gt;&lt;br&gt;&lt;font style=&quot;vertical-align: inherit;&quot;&gt;Consultar&lt;/font&gt;&lt;/div&gt;&lt;div&gt;&lt;font style=&quot;vertical-align: inherit;&quot;&gt;deshabilitar&amp;nbsp;&lt;/font&gt;&lt;/div&gt;" style="ellipse;whiteSpace=wrap;html=1;" vertex="1" parent="1">
          <mxGeometry x="697" y="650" width="120" height="80" as="geometry" />
        </mxCell>
        <mxCell id="lJCfycRy3kBcwWtuXt4Q-14" value="&lt;div&gt;CU03&lt;/div&gt;Gestionar vacantes" style="ellipse;whiteSpace=wrap;html=1;strokeColor=light-dark(#FF0F0F,#FFFFFF);" vertex="1" parent="1">
          <mxGeometry x="450" y="245" width="120" height="80" as="geometry" />
        </mxCell>
        <mxCell id="lJCfycRy3kBcwWtuXt4Q-15" value="Crear&lt;div&gt;Modificar&lt;br&gt;Consultar&lt;/div&gt;&lt;div&gt;&lt;span style=&quot;background-color: transparent; color: light-dark(rgb(0, 0, 0), rgb(255, 255, 255));&quot;&gt;Deshabilitar&lt;/span&gt;&lt;/div&gt;" style="ellipse;whiteSpace=wrap;html=1;" vertex="1" parent="1">
          <mxGeometry x="540" y="500" width="140" height="85" as="geometry" />
        </mxCell>
        <mxCell id="lJCfycRy3kBcwWtuXt4Q-16" value="CU05&lt;div&gt;Gestionar contratación&lt;/div&gt;" style="ellipse;whiteSpace=wrap;html=1;strokeColor=light-dark(#FF0000,#FFFFFF);" vertex="1" parent="1">
          <mxGeometry x="650" y="250" width="140" height="70" as="geometry" />
        </mxCell>
        <mxCell id="lJCfycRy3kBcwWtuXt4Q-17" value="" style="endArrow=classic;html=1;rounded=0;exitX=0.5;exitY=1;exitDx=0;exitDy=0;entryX=0.5;entryY=0;entryDx=0;entryDy=0;" edge="1" parent="1" source="lJCfycRy3kBcwWtuXt4Q-36" target="lJCfycRy3kBcwWtuXt4Q-38">
          <mxGeometry width="50" height="50" relative="1" as="geometry">
            <mxPoint x="629.9974746830585" y="459.99873734152925" as="sourcePoint" />
            <mxPoint x="950" y="590" as="targetPoint" />
            <Array as="points" />
          </mxGeometry>
        </mxCell>
        <mxCell id="lJCfycRy3kBcwWtuXt4Q-18" value="extends" style="edgeLabel;html=1;align=center;verticalAlign=middle;resizable=0;points=[];" connectable="0" vertex="1" parent="lJCfycRy3kBcwWtuXt4Q-17">
          <mxGeometry x="-0.2" relative="1" as="geometry">
            <mxPoint as="offset" />
          </mxGeometry>
        </mxCell>
        <mxCell id="lJCfycRy3kBcwWtuXt4Q-19" style="edgeStyle=orthogonalEdgeStyle;rounded=0;orthogonalLoop=1;jettySize=auto;html=1;exitX=0.5;exitY=1;exitDx=0;exitDy=0;entryX=1;entryY=0.5;entryDx=0;entryDy=0;" edge="1" parent="1" source="lJCfycRy3kBcwWtuXt4Q-21" target="lJCfycRy3kBcwWtuXt4Q-56">
          <mxGeometry relative="1" as="geometry" />
        </mxCell>
        <mxCell id="lJCfycRy3kBcwWtuXt4Q-20" value="Include" style="edgeLabel;html=1;align=center;verticalAlign=middle;resizable=0;points=[];" connectable="0" vertex="1" parent="lJCfycRy3kBcwWtuXt4Q-19">
          <mxGeometry x="-0.2515" y="2" relative="1" as="geometry">
            <mxPoint as="offset" />
          </mxGeometry>
        </mxCell>
        <mxCell id="lJCfycRy3kBcwWtuXt4Q-21" value="&lt;div&gt;CU04&lt;/div&gt;Gestionar contratos" style="ellipse;whiteSpace=wrap;html=1;strokeColor=light-dark(#FF0505,#FFFFFF);" vertex="1" parent="1">
          <mxGeometry x="1277" y="250" width="120" height="80" as="geometry" />
        </mxCell>
        <mxCell id="lJCfycRy3kBcwWtuXt4Q-22" value="Include" style="endArrow=block;endSize=16;endFill=0;html=1;rounded=0;entryX=0;entryY=0.5;entryDx=0;entryDy=0;exitX=1;exitY=0.5;exitDx=0;exitDy=0;" edge="1" parent="1" source="lJCfycRy3kBcwWtuXt4Q-14" target="lJCfycRy3kBcwWtuXt4Q-16">
          <mxGeometry width="160" relative="1" as="geometry">
            <mxPoint x="763.94" y="375.0100000000001" as="sourcePoint" />
            <mxPoint x="966" y="200" as="targetPoint" />
          </mxGeometry>
        </mxCell>
        <mxCell id="lJCfycRy3kBcwWtuXt4Q-23" value="Crear&lt;div&gt;Modificar&lt;br&gt;Consultar&lt;/div&gt;&lt;div&gt;Deshabilitar&lt;/div&gt;" style="ellipse;whiteSpace=wrap;html=1;" vertex="1" parent="1">
          <mxGeometry x="1267" y="110" width="140" height="85" as="geometry" />
        </mxCell>
        <mxCell id="lJCfycRy3kBcwWtuXt4Q-24" value="" style="endArrow=classic;html=1;rounded=0;exitX=0.5;exitY=0;exitDx=0;exitDy=0;entryX=0.5;entryY=1;entryDx=0;entryDy=0;" edge="1" parent="1" source="lJCfycRy3kBcwWtuXt4Q-21" target="lJCfycRy3kBcwWtuXt4Q-23">
          <mxGeometry width="50" height="50" relative="1" as="geometry">
            <mxPoint x="1396.5" y="380" as="sourcePoint" />
            <mxPoint x="1405" y="320" as="targetPoint" />
            <Array as="points" />
          </mxGeometry>
        </mxCell>
        <mxCell id="lJCfycRy3kBcwWtuXt4Q-25" value="extends" style="edgeLabel;html=1;align=center;verticalAlign=middle;resizable=0;points=[];" connectable="0" vertex="1" parent="lJCfycRy3kBcwWtuXt4Q-24">
          <mxGeometry x="-0.2" relative="1" as="geometry">
            <mxPoint as="offset" />
          </mxGeometry>
        </mxCell>
        <mxCell id="lJCfycRy3kBcwWtuXt4Q-26" value="Include" style="endArrow=block;endSize=16;endFill=0;html=1;rounded=0;exitX=1;exitY=0.5;exitDx=0;exitDy=0;" edge="1" parent="1" source="lJCfycRy3kBcwWtuXt4Q-16" target="lJCfycRy3kBcwWtuXt4Q-21">
          <mxGeometry width="160" relative="1" as="geometry">
            <mxPoint x="760" y="370" as="sourcePoint" />
            <mxPoint x="1060" y="410" as="targetPoint" />
          </mxGeometry>
        </mxCell>
        <mxCell id="lJCfycRy3kBcwWtuXt4Q-27" value="&lt;div&gt;&lt;font style=&quot;vertical-align: inherit;&quot;&gt;&lt;font style=&quot;vertical-align: inherit;&quot;&gt;Modificar &lt;/font&gt;&lt;/font&gt;&lt;br&gt;&lt;font style=&quot;vertical-align: inherit;&quot;&gt;&lt;font style=&quot;vertical-align: inherit;&quot;&gt;Consultar&lt;/font&gt;&lt;/font&gt;&lt;/div&gt;&lt;div&gt;&lt;font style=&quot;vertical-align: inherit;&quot;&gt;&lt;font style=&quot;vertical-align: inherit;&quot;&gt;deshabilitar&amp;nbsp;&lt;/font&gt;&lt;/font&gt;&lt;/div&gt;" style="ellipse;whiteSpace=wrap;html=1;" vertex="1" parent="1">
          <mxGeometry x="697" y="100" width="140" height="85" as="geometry" />
        </mxCell>
        <mxCell id="lJCfycRy3kBcwWtuXt4Q-28" value="" style="endArrow=classic;html=1;rounded=0;entryX=0.457;entryY=1;entryDx=0;entryDy=0;entryPerimeter=0;exitX=0.5;exitY=0;exitDx=0;exitDy=0;" edge="1" parent="1" source="lJCfycRy3kBcwWtuXt4Q-16" target="lJCfycRy3kBcwWtuXt4Q-27">
          <mxGeometry width="50" height="50" relative="1" as="geometry">
            <mxPoint x="810" y="190" as="sourcePoint" />
            <mxPoint x="1128" y="518" as="targetPoint" />
            <Array as="points" />
          </mxGeometry>
        </mxCell>
        <mxCell id="lJCfycRy3kBcwWtuXt4Q-29" value="extends" style="edgeLabel;html=1;align=center;verticalAlign=middle;resizable=0;points=[];" connectable="0" vertex="1" parent="lJCfycRy3kBcwWtuXt4Q-28">
          <mxGeometry x="-0.2" relative="1" as="geometry">
            <mxPoint as="offset" />
          </mxGeometry>
        </mxCell>
        <mxCell id="lJCfycRy3kBcwWtuXt4Q-30" value="&lt;font style=&quot;vertical-align: inherit;&quot;&gt;&lt;font style=&quot;vertical-align: inherit;&quot;&gt;Crear&lt;/font&gt;&lt;/font&gt;&lt;div&gt;&lt;font style=&quot;vertical-align: inherit;&quot;&gt;&lt;font style=&quot;vertical-align: inherit;&quot;&gt;Consultar&lt;/font&gt;&lt;/font&gt;&lt;span style=&quot;background-color: transparent; color: light-dark(rgb(0, 0, 0), rgb(255, 255, 255));&quot;&gt;&amp;nbsp;&lt;/span&gt;&lt;/div&gt;&lt;div&gt;&lt;span style=&quot;background-color: transparent; color: light-dark(rgb(0, 0, 0), rgb(255, 255, 255));&quot;&gt;Deshabilitar&lt;/span&gt;&lt;/div&gt;" style="ellipse;whiteSpace=wrap;html=1;" vertex="1" parent="1">
          <mxGeometry x="1487" y="120" width="140" height="85" as="geometry" />
        </mxCell>
        <mxCell id="lJCfycRy3kBcwWtuXt4Q-31" style="edgeStyle=orthogonalEdgeStyle;rounded=0;orthogonalLoop=1;jettySize=auto;html=1;entryX=1;entryY=0;entryDx=0;entryDy=0;exitX=0.5;exitY=1;exitDx=0;exitDy=0;" edge="1" parent="1" source="lJCfycRy3kBcwWtuXt4Q-33" target="lJCfycRy3kBcwWtuXt4Q-56">
          <mxGeometry relative="1" as="geometry" />
        </mxCell>
        <mxCell id="lJCfycRy3kBcwWtuXt4Q-32" value="Include" style="edgeLabel;html=1;align=center;verticalAlign=middle;resizable=0;points=[];" connectable="0" vertex="1" parent="lJCfycRy3kBcwWtuXt4Q-31">
          <mxGeometry x="0.0643" y="-1" relative="1" as="geometry">
            <mxPoint as="offset" />
          </mxGeometry>
        </mxCell>
        <mxCell id="lJCfycRy3kBcwWtuXt4Q-33" value="CU08&lt;div&gt;Gestionar ingresos&lt;/div&gt;" style="ellipse;whiteSpace=wrap;html=1;strokeColor=light-dark(#FF0000,#FFFFFF);" vertex="1" parent="1">
          <mxGeometry x="910" y="410" width="140" height="70" as="geometry" />
        </mxCell>
        <mxCell id="lJCfycRy3kBcwWtuXt4Q-34" value="extends" style="endArrow=block;endSize=16;endFill=0;html=1;rounded=0;entryX=0;entryY=1;entryDx=0;entryDy=0;exitX=1;exitY=0;exitDx=0;exitDy=0;" edge="1" parent="1" source="lJCfycRy3kBcwWtuXt4Q-33" target="lJCfycRy3kBcwWtuXt4Q-35">
          <mxGeometry width="160" relative="1" as="geometry">
            <mxPoint x="1060" y="455" as="sourcePoint" />
            <mxPoint x="1628" y="980" as="targetPoint" />
            <Array as="points" />
          </mxGeometry>
        </mxCell>
        <mxCell id="lJCfycRy3kBcwWtuXt4Q-35" value="&lt;font style=&quot;vertical-align: inherit;&quot;&gt;Crear&lt;/font&gt;&lt;div&gt;&lt;font style=&quot;vertical-align: inherit;&quot;&gt;Modificar&lt;/font&gt;&lt;br&gt;&lt;font style=&quot;vertical-align: inherit;&quot;&gt;Consultar&lt;/font&gt;&lt;/div&gt;&lt;div&gt;&lt;font style=&quot;vertical-align: inherit;&quot;&gt;deshabilitar&amp;nbsp;&lt;/font&gt;&lt;/div&gt;" style="ellipse;whiteSpace=wrap;html=1;" vertex="1" parent="1">
          <mxGeometry x="1050" y="300" width="140" height="70" as="geometry" />
        </mxCell>
        <mxCell id="lJCfycRy3kBcwWtuXt4Q-36" value="CU11&lt;div&gt;Gestionar Horas extras&lt;/div&gt;" style="ellipse;whiteSpace=wrap;html=1;strokeColor=light-dark(#FF3B00,#FFFFFF);" vertex="1" parent="1">
          <mxGeometry x="687" y="410" width="140" height="70" as="geometry" />
        </mxCell>
        <mxCell id="lJCfycRy3kBcwWtuXt4Q-37" value="extends" style="endArrow=block;endSize=16;endFill=0;html=1;rounded=0;entryX=0;entryY=0;entryDx=0;entryDy=0;" edge="1" parent="1" source="lJCfycRy3kBcwWtuXt4Q-4" target="lJCfycRy3kBcwWtuXt4Q-15">
          <mxGeometry width="160" relative="1" as="geometry">
            <mxPoint x="507" y="480" as="sourcePoint" />
            <mxPoint x="687" y="600" as="targetPoint" />
          </mxGeometry>
        </mxCell>
        <mxCell id="lJCfycRy3kBcwWtuXt4Q-38" value="&lt;font style=&quot;vertical-align: inherit;&quot;&gt;Crear&lt;/font&gt;&lt;div&gt;&lt;font style=&quot;vertical-align: inherit;&quot;&gt;Modificar&lt;/font&gt;&lt;br&gt;&lt;font style=&quot;vertical-align: inherit;&quot;&gt;Consultar&lt;/font&gt;&lt;/div&gt;&lt;div&gt;&lt;font style=&quot;vertical-align: inherit;&quot;&gt;deshabilitar&amp;nbsp;&lt;/font&gt;&lt;/div&gt;" style="ellipse;whiteSpace=wrap;html=1;" vertex="1" parent="1">
          <mxGeometry x="687" y="550" width="140" height="70" as="geometry" />
        </mxCell>
        <mxCell id="lJCfycRy3kBcwWtuXt4Q-39" value="" style="endArrow=classic;html=1;rounded=0;exitX=0.5;exitY=0;exitDx=0;exitDy=0;" edge="1" parent="1" source="lJCfycRy3kBcwWtuXt4Q-12" target="lJCfycRy3kBcwWtuXt4Q-30">
          <mxGeometry width="50" height="50" relative="1" as="geometry">
            <mxPoint x="1667" y="460" as="sourcePoint" />
            <mxPoint x="1565" y="595" as="targetPoint" />
            <Array as="points" />
          </mxGeometry>
        </mxCell>
        <mxCell id="lJCfycRy3kBcwWtuXt4Q-40" value="extends" style="edgeLabel;html=1;align=center;verticalAlign=middle;resizable=0;points=[];" connectable="0" vertex="1" parent="lJCfycRy3kBcwWtuXt4Q-39">
          <mxGeometry x="-0.2" relative="1" as="geometry">
            <mxPoint as="offset" />
          </mxGeometry>
        </mxCell>
        <mxCell id="lJCfycRy3kBcwWtuXt4Q-41" value="" style="endArrow=classic;html=1;rounded=0;exitX=0.5;exitY=0;exitDx=0;exitDy=0;entryX=0.5;entryY=1;entryDx=0;entryDy=0;" edge="1" parent="1" source="lJCfycRy3kBcwWtuXt4Q-14" target="lJCfycRy3kBcwWtuXt4Q-55">
          <mxGeometry width="50" height="50" relative="1" as="geometry">
            <mxPoint x="570" y="360" as="sourcePoint" />
            <mxPoint x="600" y="160" as="targetPoint" />
            <Array as="points" />
          </mxGeometry>
        </mxCell>
        <mxCell id="lJCfycRy3kBcwWtuXt4Q-42" value="extends" style="edgeLabel;html=1;align=center;verticalAlign=middle;resizable=0;points=[];" connectable="0" vertex="1" parent="lJCfycRy3kBcwWtuXt4Q-41">
          <mxGeometry x="-0.2882" y="1" relative="1" as="geometry">
            <mxPoint as="offset" />
          </mxGeometry>
        </mxCell>
        <mxCell id="lJCfycRy3kBcwWtuXt4Q-43" value="" style="endArrow=classic;html=1;rounded=0;exitX=0.989;exitY=0.733;exitDx=0;exitDy=0;exitPerimeter=0;" edge="1" parent="1" source="lJCfycRy3kBcwWtuXt4Q-59" target="lJCfycRy3kBcwWtuXt4Q-13">
          <mxGeometry width="50" height="50" relative="1" as="geometry">
            <mxPoint x="550.8800093150357" y="649.2789255904984" as="sourcePoint" />
            <mxPoint x="540" y="735" as="targetPoint" />
            <Array as="points" />
          </mxGeometry>
        </mxCell>
        <mxCell id="lJCfycRy3kBcwWtuXt4Q-44" value="extends" style="edgeLabel;html=1;align=center;verticalAlign=middle;resizable=0;points=[];" connectable="0" vertex="1" parent="lJCfycRy3kBcwWtuXt4Q-43">
          <mxGeometry x="-0.2" relative="1" as="geometry">
            <mxPoint x="-22" as="offset" />
          </mxGeometry>
        </mxCell>
        <mxCell id="lJCfycRy3kBcwWtuXt4Q-45" value="Include" style="endArrow=block;endSize=16;endFill=0;html=1;rounded=0;exitX=1;exitY=0.5;exitDx=0;exitDy=0;entryX=0;entryY=0.5;entryDx=0;entryDy=0;" edge="1" parent="1" source="lJCfycRy3kBcwWtuXt4Q-21" target="lJCfycRy3kBcwWtuXt4Q-12">
          <mxGeometry width="160" relative="1" as="geometry">
            <mxPoint x="1414" y="400" as="sourcePoint" />
            <mxPoint x="1377" y="482" as="targetPoint" />
          </mxGeometry>
        </mxCell>
        <mxCell id="lJCfycRy3kBcwWtuXt4Q-46" value="Include" style="endArrow=block;endSize=16;endFill=0;html=1;rounded=0;exitX=1;exitY=0.5;exitDx=0;exitDy=0;entryX=0;entryY=0.5;entryDx=0;entryDy=0;" edge="1" parent="1" source="lJCfycRy3kBcwWtuXt4Q-36" target="lJCfycRy3kBcwWtuXt4Q-33">
          <mxGeometry width="160" relative="1" as="geometry">
            <mxPoint x="1137" y="700" as="sourcePoint" />
            <mxPoint x="880" y="540" as="targetPoint" />
          </mxGeometry>
        </mxCell>
        <mxCell id="lJCfycRy3kBcwWtuXt4Q-47" value="" style="endArrow=classic;html=1;rounded=0;exitX=1;exitY=0;exitDx=0;exitDy=0;entryX=0;entryY=0.5;entryDx=0;entryDy=0;" edge="1" parent="1" source="lJCfycRy3kBcwWtuXt4Q-7" target="lJCfycRy3kBcwWtuXt4Q-14">
          <mxGeometry width="50" height="50" relative="1" as="geometry">
            <mxPoint x="330" y="460" as="sourcePoint" />
            <mxPoint x="380" y="410" as="targetPoint" />
          </mxGeometry>
        </mxCell>
        <mxCell id="lJCfycRy3kBcwWtuXt4Q-48" value="Include" style="edgeLabel;html=1;align=center;verticalAlign=middle;resizable=0;points=[];" connectable="0" vertex="1" parent="lJCfycRy3kBcwWtuXt4Q-47">
          <mxGeometry x="-0.2066" y="3" relative="1" as="geometry">
            <mxPoint as="offset" />
          </mxGeometry>
        </mxCell>
        <mxCell id="lJCfycRy3kBcwWtuXt4Q-49" value="" style="endArrow=classic;html=1;rounded=0;exitX=1;exitY=1;exitDx=0;exitDy=0;entryX=0;entryY=0.5;entryDx=0;entryDy=0;" edge="1" parent="1" source="lJCfycRy3kBcwWtuXt4Q-7" target="lJCfycRy3kBcwWtuXt4Q-4">
          <mxGeometry width="50" height="50" relative="1" as="geometry">
            <mxPoint x="520" y="380" as="sourcePoint" />
            <mxPoint x="570" y="330" as="targetPoint" />
          </mxGeometry>
        </mxCell>
        <mxCell id="lJCfycRy3kBcwWtuXt4Q-50" value="Include" style="edgeLabel;html=1;align=center;verticalAlign=middle;resizable=0;points=[];" connectable="0" vertex="1" parent="lJCfycRy3kBcwWtuXt4Q-49">
          <mxGeometry x="-0.166" y="-5" relative="1" as="geometry">
            <mxPoint x="1" as="offset" />
          </mxGeometry>
        </mxCell>
        <mxCell id="lJCfycRy3kBcwWtuXt4Q-51" value="" style="endArrow=classic;html=1;rounded=0;exitX=0.615;exitY=1.011;exitDx=0;exitDy=0;exitPerimeter=0;entryX=0;entryY=0;entryDx=0;entryDy=0;" edge="1" parent="1" source="lJCfycRy3kBcwWtuXt4Q-7" target="lJCfycRy3kBcwWtuXt4Q-59">
          <mxGeometry width="50" height="50" relative="1" as="geometry">
            <mxPoint x="300" y="520" as="sourcePoint" />
            <mxPoint x="450" y="620" as="targetPoint" />
          </mxGeometry>
        </mxCell>
        <mxCell id="lJCfycRy3kBcwWtuXt4Q-52" value="Include" style="edgeLabel;html=1;align=center;verticalAlign=middle;resizable=0;points=[];" connectable="0" vertex="1" parent="lJCfycRy3kBcwWtuXt4Q-51">
          <mxGeometry x="-0.1048" y="-3" relative="1" as="geometry">
            <mxPoint x="-1" as="offset" />
          </mxGeometry>
        </mxCell>
        <mxCell id="lJCfycRy3kBcwWtuXt4Q-53" value="" style="endArrow=classic;html=1;rounded=0;exitX=0.5;exitY=0;exitDx=0;exitDy=0;" edge="1" parent="1" source="lJCfycRy3kBcwWtuXt4Q-3" target="lJCfycRy3kBcwWtuXt4Q-11">
          <mxGeometry width="50" height="50" relative="1" as="geometry">
            <mxPoint x="340" y="140" as="sourcePoint" />
            <mxPoint x="345" y="185" as="targetPoint" />
            <Array as="points" />
          </mxGeometry>
        </mxCell>
        <mxCell id="lJCfycRy3kBcwWtuXt4Q-54" value="extends" style="edgeLabel;html=1;align=center;verticalAlign=middle;resizable=0;points=[];" connectable="0" vertex="1" parent="lJCfycRy3kBcwWtuXt4Q-53">
          <mxGeometry x="-0.2" relative="1" as="geometry">
            <mxPoint as="offset" />
          </mxGeometry>
        </mxCell>
        <mxCell id="lJCfycRy3kBcwWtuXt4Q-55" value="Crear&lt;div&gt;Modificar&lt;br&gt;Consultar&lt;/div&gt;&lt;div&gt;deshabilitar&amp;nbsp;&lt;/div&gt;" style="ellipse;whiteSpace=wrap;html=1;" vertex="1" parent="1">
          <mxGeometry x="500" y="60" width="140" height="85" as="geometry" />
        </mxCell>
        <mxCell id="lJCfycRy3kBcwWtuXt4Q-56" value="&lt;div&gt;CU06&lt;/div&gt;Gestionar reportes" style="ellipse;whiteSpace=wrap;html=1;strokeColor=light-dark(#FF0F0F,#FFFFFF);" vertex="1" parent="1">
          <mxGeometry x="1140" y="880" width="120" height="80" as="geometry" />
        </mxCell>
        <mxCell id="lJCfycRy3kBcwWtuXt4Q-57" style="edgeStyle=orthogonalEdgeStyle;rounded=0;orthogonalLoop=1;jettySize=auto;html=1;entryX=0;entryY=0;entryDx=0;entryDy=0;" edge="1" parent="1" source="lJCfycRy3kBcwWtuXt4Q-59" target="lJCfycRy3kBcwWtuXt4Q-56">
          <mxGeometry relative="1" as="geometry">
            <mxPoint x="1150" y="880" as="targetPoint" />
            <Array as="points">
              <mxPoint x="500" y="892" />
            </Array>
          </mxGeometry>
        </mxCell>
        <mxCell id="lJCfycRy3kBcwWtuXt4Q-58" value="Include" style="edgeLabel;html=1;align=center;verticalAlign=middle;resizable=0;points=[];" connectable="0" vertex="1" parent="lJCfycRy3kBcwWtuXt4Q-57">
          <mxGeometry x="0.0534" y="2" relative="1" as="geometry">
            <mxPoint as="offset" />
          </mxGeometry>
        </mxCell>
        <mxCell id="lJCfycRy3kBcwWtuXt4Q-59" value="&lt;div&gt;CU07&lt;/div&gt;Gestionar solicitudes" style="ellipse;whiteSpace=wrap;html=1;strokeColor=light-dark(#FF0000,#FFFFFF);" vertex="1" parent="1">
          <mxGeometry x="440" y="585" width="120" height="80" as="geometry" />
        </mxCell>
        <mxCell id="lJCfycRy3kBcwWtuXt4Q-60" value="Crear&lt;div&gt;Modificar&lt;br&gt;Consultar&lt;/div&gt;&lt;div&gt;deshabilitar&amp;nbsp;&lt;/div&gt;" style="ellipse;whiteSpace=wrap;html=1;direction=west;" vertex="1" parent="1">
          <mxGeometry x="959" y="730" width="140" height="85" as="geometry" />
        </mxCell>
        <mxCell id="lJCfycRy3kBcwWtuXt4Q-61" style="edgeStyle=orthogonalEdgeStyle;rounded=0;orthogonalLoop=1;jettySize=auto;html=1;exitX=0.5;exitY=0;exitDx=0;exitDy=0;" edge="1" parent="1" source="lJCfycRy3kBcwWtuXt4Q-56">
          <mxGeometry relative="1" as="geometry">
            <mxPoint x="1100" y="770" as="targetPoint" />
            <Array as="points">
              <mxPoint x="1200" y="770" />
            </Array>
          </mxGeometry>
        </mxCell>
        <mxCell id="lJCfycRy3kBcwWtuXt4Q-62" value="extends" style="edgeLabel;html=1;align=center;verticalAlign=middle;resizable=0;points=[];" connectable="0" vertex="1" parent="lJCfycRy3kBcwWtuXt4Q-61">
          <mxGeometry x="-0.2601" y="3" relative="1" as="geometry">
            <mxPoint as="offset" />
          </mxGeometry>
        </mxCell>
      </root>
    </mxGraphModel>
  </diagram>
  <diagram id="8egu74ZvlNo6kBmzweNV" name="GERENCIA">
    <mxGraphModel grid="1" page="1" gridSize="10" guides="1" tooltips="1" connect="1" arrows="1" fold="1" pageScale="1" pageWidth="827" pageHeight="1169" math="0" shadow="0">
      <root>
        <mxCell id="0" />
        <mxCell id="1" parent="0" />
        <mxCell id="PNVcG1xV8vV_hXisyLMM-1" value="" style="edgeStyle=orthogonalEdgeStyle;rounded=0;orthogonalLoop=1;jettySize=auto;html=1;" edge="1" parent="1" source="PNVcG1xV8vV_hXisyLMM-2" target="PNVcG1xV8vV_hXisyLMM-5">
          <mxGeometry relative="1" as="geometry" />
        </mxCell>
        <mxCell id="PNVcG1xV8vV_hXisyLMM-2" value="Gerencia" style="shape=umlActor;verticalLabelPosition=bottom;verticalAlign=top;html=1;outlineConnect=0;" vertex="1" parent="1">
          <mxGeometry x="81" y="315" width="30" height="60" as="geometry" />
        </mxCell>
        <mxCell id="PNVcG1xV8vV_hXisyLMM-3" value="CU2&lt;div&gt;Gestionar Usuarios&lt;/div&gt;" style="ellipse;whiteSpace=wrap;html=1;strokeColor=light-dark(#FF3838,#FFFFFF);" vertex="1" parent="1">
          <mxGeometry x="360" y="130" width="140" height="70" as="geometry" />
        </mxCell>
        <mxCell id="PNVcG1xV8vV_hXisyLMM-5" value="&lt;div&gt;CU1&lt;/div&gt;Iniciar sesión&amp;nbsp;&lt;div&gt;&lt;br&gt;&lt;/div&gt;" style="ellipse;whiteSpace=wrap;html=1;strokeColor=light-dark(#FF0000,#FFFFFF);" vertex="1" parent="1">
          <mxGeometry x="190" y="310" width="140" height="70" as="geometry" />
        </mxCell>
        <mxCell id="PNVcG1xV8vV_hXisyLMM-6" value="Extends" style="endArrow=block;endSize=16;endFill=0;html=1;rounded=0;entryX=0.5;entryY=0;entryDx=0;entryDy=0;exitX=0.5;exitY=1;exitDx=0;exitDy=0;" edge="1" parent="1" source="PNVcG1xV8vV_hXisyLMM-15" target="PNVcG1xV8vV_hXisyLMM-9">
          <mxGeometry x="-0.4286" y="71" width="160" relative="1" as="geometry">
            <mxPoint x="590" y="430" as="sourcePoint" />
            <mxPoint x="1250" y="320" as="targetPoint" />
            <mxPoint as="offset" />
          </mxGeometry>
        </mxCell>
        <mxCell id="PNVcG1xV8vV_hXisyLMM-7" value="Include" style="endArrow=block;endSize=16;endFill=0;html=1;rounded=0;exitX=0.428;exitY=0.02;exitDx=0;exitDy=0;exitPerimeter=0;" edge="1" parent="1" source="PNVcG1xV8vV_hXisyLMM-5" target="PNVcG1xV8vV_hXisyLMM-3">
          <mxGeometry x="-0.3651" width="160" relative="1" as="geometry">
            <mxPoint x="150" y="210" as="sourcePoint" />
            <mxPoint x="310" y="210" as="targetPoint" />
            <Array as="points">
              <mxPoint x="250" y="165" />
            </Array>
            <mxPoint as="offset" />
          </mxGeometry>
        </mxCell>
        <mxCell id="PNVcG1xV8vV_hXisyLMM-8" value="Include" style="endArrow=block;endSize=16;endFill=0;html=1;rounded=0;exitX=1;exitY=0.5;exitDx=0;exitDy=0;entryX=0;entryY=0.5;entryDx=0;entryDy=0;" edge="1" parent="1" source="PNVcG1xV8vV_hXisyLMM-15" target="PNVcG1xV8vV_hXisyLMM-24">
          <mxGeometry width="160" relative="1" as="geometry">
            <mxPoint x="690" y="410" as="sourcePoint" />
            <mxPoint x="520.94" y="397.97" as="targetPoint" />
          </mxGeometry>
        </mxCell>
        <mxCell id="PNVcG1xV8vV_hXisyLMM-9" value="&lt;div&gt;Modificar&lt;br&gt;Consultar&lt;/div&gt;" style="ellipse;whiteSpace=wrap;html=1;" vertex="1" parent="1">
          <mxGeometry x="369" y="580" width="140" height="85" as="geometry" />
        </mxCell>
        <mxCell id="PNVcG1xV8vV_hXisyLMM-10" value="Crear&lt;div&gt;modificar&lt;/div&gt;&lt;div&gt;consultar&lt;/div&gt;&lt;div&gt;deshabilitar&amp;nbsp;&lt;/div&gt;" style="ellipse;whiteSpace=wrap;html=1;" vertex="1" parent="1">
          <mxGeometry x="369" width="130" height="90" as="geometry" />
        </mxCell>
        <mxCell id="PNVcG1xV8vV_hXisyLMM-11" value="" style="endArrow=classic;html=1;rounded=0;exitX=0.557;exitY=-0.014;exitDx=0;exitDy=0;entryX=0.538;entryY=1;entryDx=0;entryDy=0;entryPerimeter=0;exitPerimeter=0;" edge="1" parent="1" source="PNVcG1xV8vV_hXisyLMM-3" target="PNVcG1xV8vV_hXisyLMM-10">
          <mxGeometry width="50" height="50" relative="1" as="geometry">
            <mxPoint x="490" y="430" as="sourcePoint" />
            <mxPoint x="430" y="60" as="targetPoint" />
            <Array as="points" />
          </mxGeometry>
        </mxCell>
        <mxCell id="PNVcG1xV8vV_hXisyLMM-12" value="extends" style="edgeLabel;html=1;align=center;verticalAlign=middle;resizable=0;points=[];" connectable="0" vertex="1" parent="PNVcG1xV8vV_hXisyLMM-11">
          <mxGeometry x="-0.2" relative="1" as="geometry">
            <mxPoint as="offset" />
          </mxGeometry>
        </mxCell>
        <mxCell id="PNVcG1xV8vV_hXisyLMM-14" value="Consultar&lt;div&gt;Crear&lt;/div&gt;" style="ellipse;whiteSpace=wrap;html=1;" vertex="1" parent="1">
          <mxGeometry x="190" y="798" width="120" height="80" as="geometry" />
        </mxCell>
        <mxCell id="mhb03bBuwF5G1pB24M2N-1" style="edgeStyle=orthogonalEdgeStyle;rounded=0;orthogonalLoop=1;jettySize=auto;html=1;exitX=0;exitY=0.5;exitDx=0;exitDy=0;entryX=1;entryY=0;entryDx=0;entryDy=0;" edge="1" parent="1" source="PNVcG1xV8vV_hXisyLMM-15" target="PNVcG1xV8vV_hXisyLMM-34">
          <mxGeometry relative="1" as="geometry" />
        </mxCell>
        <mxCell id="mhb03bBuwF5G1pB24M2N-2" value="Include" style="edgeLabel;html=1;align=center;verticalAlign=middle;resizable=0;points=[];" connectable="0" vertex="1" parent="mhb03bBuwF5G1pB24M2N-1">
          <mxGeometry x="-0.0268" y="2" relative="1" as="geometry">
            <mxPoint as="offset" />
          </mxGeometry>
        </mxCell>
        <mxCell id="PNVcG1xV8vV_hXisyLMM-15" value="&lt;div&gt;CU3&lt;/div&gt;Gestonar de ingresos" style="ellipse;whiteSpace=wrap;html=1;strokeColor=light-dark(#FF0F0F,#FFFFFF);" vertex="1" parent="1">
          <mxGeometry x="379" y="420" width="120" height="80" as="geometry" />
        </mxCell>
        <mxCell id="PNVcG1xV8vV_hXisyLMM-18" style="edgeStyle=orthogonalEdgeStyle;rounded=0;orthogonalLoop=1;jettySize=auto;html=1;entryX=0.5;entryY=0;entryDx=0;entryDy=0;exitX=1;exitY=0.5;exitDx=0;exitDy=0;" edge="1" parent="1" source="PNVcG1xV8vV_hXisyLMM-5" target="PNVcG1xV8vV_hXisyLMM-15">
          <mxGeometry relative="1" as="geometry">
            <mxPoint x="424" y="200" as="sourcePoint" />
            <mxPoint x="423" y="442" as="targetPoint" />
            <Array as="points">
              <mxPoint x="439" y="345" />
            </Array>
          </mxGeometry>
        </mxCell>
        <mxCell id="PNVcG1xV8vV_hXisyLMM-19" value="Include" style="edgeLabel;html=1;align=center;verticalAlign=middle;resizable=0;points=[];" connectable="0" vertex="1" parent="PNVcG1xV8vV_hXisyLMM-18">
          <mxGeometry x="-0.0123" y="1" relative="1" as="geometry">
            <mxPoint as="offset" />
          </mxGeometry>
        </mxCell>
        <mxCell id="PNVcG1xV8vV_hXisyLMM-24" value="&lt;div&gt;CU04&lt;/div&gt;Gestionar contratos" style="ellipse;whiteSpace=wrap;html=1;strokeColor=light-dark(#FF0505,#FFFFFF);" vertex="1" parent="1">
          <mxGeometry x="560" y="420" width="120" height="80" as="geometry" />
        </mxCell>
        <mxCell id="PNVcG1xV8vV_hXisyLMM-26" value="Crear&lt;div&gt;Modificar&lt;br&gt;Consultar&lt;/div&gt;&lt;div&gt;deshabilitar&amp;nbsp;&lt;/div&gt;" style="ellipse;whiteSpace=wrap;html=1;" vertex="1" parent="1">
          <mxGeometry x="550" y="200" width="140" height="85" as="geometry" />
        </mxCell>
        <mxCell id="PNVcG1xV8vV_hXisyLMM-27" value="" style="endArrow=classic;html=1;rounded=0;exitX=0.5;exitY=0;exitDx=0;exitDy=0;entryX=0.5;entryY=1;entryDx=0;entryDy=0;" edge="1" parent="1" source="PNVcG1xV8vV_hXisyLMM-24" target="PNVcG1xV8vV_hXisyLMM-26">
          <mxGeometry width="50" height="50" relative="1" as="geometry">
            <mxPoint x="801.5" y="380" as="sourcePoint" />
            <mxPoint x="810" y="320" as="targetPoint" />
            <Array as="points" />
          </mxGeometry>
        </mxCell>
        <mxCell id="PNVcG1xV8vV_hXisyLMM-28" value="extends" style="edgeLabel;html=1;align=center;verticalAlign=middle;resizable=0;points=[];" connectable="0" vertex="1" parent="PNVcG1xV8vV_hXisyLMM-27">
          <mxGeometry x="-0.2" relative="1" as="geometry">
            <mxPoint as="offset" />
          </mxGeometry>
        </mxCell>
        <mxCell id="PNVcG1xV8vV_hXisyLMM-34" value="&lt;div&gt;CU06&lt;/div&gt;Gestionar reportes" style="ellipse;whiteSpace=wrap;html=1;strokeColor=light-dark(#FF0F0F,#FFFFFF);" vertex="1" parent="1">
          <mxGeometry x="190" y="668" width="120" height="80" as="geometry" />
        </mxCell>
        <mxCell id="PNVcG1xV8vV_hXisyLMM-44" value="" style="endArrow=block;endSize=16;endFill=0;html=1;rounded=0;entryX=0.592;entryY=0;entryDx=0;entryDy=0;entryPerimeter=0;exitX=0.5;exitY=1;exitDx=0;exitDy=0;" edge="1" parent="1" source="PNVcG1xV8vV_hXisyLMM-5" target="PNVcG1xV8vV_hXisyLMM-34">
          <mxGeometry width="160" relative="1" as="geometry">
            <mxPoint x="310" y="430" as="sourcePoint" />
            <mxPoint x="352" y="540" as="targetPoint" />
          </mxGeometry>
        </mxCell>
        <mxCell id="mhb03bBuwF5G1pB24M2N-5" value="Include" style="edgeLabel;html=1;align=center;verticalAlign=middle;resizable=0;points=[];" connectable="0" vertex="1" parent="PNVcG1xV8vV_hXisyLMM-44">
          <mxGeometry x="-0.5972" y="3" relative="1" as="geometry">
            <mxPoint as="offset" />
          </mxGeometry>
        </mxCell>
        <mxCell id="PNVcG1xV8vV_hXisyLMM-45" value="" style="endArrow=classic;html=1;rounded=0;exitX=0.5;exitY=1;exitDx=0;exitDy=0;entryX=0.5;entryY=0;entryDx=0;entryDy=0;" edge="1" parent="1" source="PNVcG1xV8vV_hXisyLMM-34" target="PNVcG1xV8vV_hXisyLMM-14">
          <mxGeometry width="50" height="50" relative="1" as="geometry">
            <mxPoint x="480" y="738" as="sourcePoint" />
            <mxPoint x="640.2790347946609" y="634.2909744674298" as="targetPoint" />
            <Array as="points" />
          </mxGeometry>
        </mxCell>
        <mxCell id="PNVcG1xV8vV_hXisyLMM-46" value="extends" style="edgeLabel;html=1;align=center;verticalAlign=middle;resizable=0;points=[];" connectable="0" vertex="1" parent="PNVcG1xV8vV_hXisyLMM-45">
          <mxGeometry x="-0.2" relative="1" as="geometry">
            <mxPoint as="offset" />
          </mxGeometry>
        </mxCell>
        <mxCell id="mhb03bBuwF5G1pB24M2N-6" style="edgeStyle=orthogonalEdgeStyle;rounded=0;orthogonalLoop=1;jettySize=auto;html=1;exitX=0.5;exitY=1;exitDx=0;exitDy=0;entryX=1;entryY=0.588;entryDx=0;entryDy=0;entryPerimeter=0;" edge="1" parent="1" source="PNVcG1xV8vV_hXisyLMM-24" target="PNVcG1xV8vV_hXisyLMM-34">
          <mxGeometry relative="1" as="geometry" />
        </mxCell>
        <mxCell id="mhb03bBuwF5G1pB24M2N-7" value="Include" style="edgeLabel;html=1;align=center;verticalAlign=middle;resizable=0;points=[];" connectable="0" vertex="1" parent="mhb03bBuwF5G1pB24M2N-6">
          <mxGeometry x="0.1848" y="3" relative="1" as="geometry">
            <mxPoint as="offset" />
          </mxGeometry>
        </mxCell>
      </root>
    </mxGraphModel>
  </diagram>
  <diagram id="sLTUztXJGOFEGN6Cpi0f" name="PERSONAL">
    <mxGraphModel grid="1" page="1" gridSize="10" guides="1" tooltips="1" connect="1" arrows="1" fold="1" pageScale="1" pageWidth="827" pageHeight="1169" math="0" shadow="0">
      <root>
        <mxCell id="0" />
        <mxCell id="1" parent="0" />
        <mxCell id="PxC1LavRJ6u6ARq5SEOI-1" value="" style="edgeStyle=orthogonalEdgeStyle;rounded=0;orthogonalLoop=1;jettySize=auto;html=1;" edge="1" parent="1" source="PxC1LavRJ6u6ARq5SEOI-2" target="PxC1LavRJ6u6ARq5SEOI-5">
          <mxGeometry relative="1" as="geometry" />
        </mxCell>
        <mxCell id="PxC1LavRJ6u6ARq5SEOI-2" value="Personal" style="shape=umlActor;verticalLabelPosition=bottom;verticalAlign=top;html=1;outlineConnect=0;" vertex="1" parent="1">
          <mxGeometry x="80" y="315" width="30" height="60" as="geometry" />
        </mxCell>
        <mxCell id="PxC1LavRJ6u6ARq5SEOI-3" value="CU2&lt;div&gt;Gestionar Usuarios&lt;/div&gt;" style="ellipse;whiteSpace=wrap;html=1;strokeColor=light-dark(#FF3838,#FFFFFF);" vertex="1" parent="1">
          <mxGeometry x="360" y="130" width="140" height="70" as="geometry" />
        </mxCell>
        <mxCell id="PxC1LavRJ6u6ARq5SEOI-4" value="CU10&lt;div&gt;Gestionar Horarios&lt;/div&gt;" style="ellipse;whiteSpace=wrap;html=1;strokeColor=light-dark(#FF1919,#FFFFFF);" vertex="1" parent="1">
          <mxGeometry x="204" y="599.5" width="140" height="70" as="geometry" />
        </mxCell>
        <mxCell id="PxC1LavRJ6u6ARq5SEOI-5" value="&lt;div&gt;CU1&lt;/div&gt;Iniciar sesión&amp;nbsp;&lt;div&gt;&lt;br&gt;&lt;/div&gt;" style="ellipse;whiteSpace=wrap;html=1;strokeColor=light-dark(#FF0000,#FFFFFF);" vertex="1" parent="1">
          <mxGeometry x="190" y="310" width="140" height="70" as="geometry" />
        </mxCell>
        <mxCell id="PxC1LavRJ6u6ARq5SEOI-6" value="Extends" style="endArrow=block;endSize=16;endFill=0;html=1;rounded=0;entryX=0;entryY=0.5;entryDx=0;entryDy=0;" edge="1" parent="1" source="PxC1LavRJ6u6ARq5SEOI-15" target="PxC1LavRJ6u6ARq5SEOI-9">
          <mxGeometry width="160" relative="1" as="geometry">
            <mxPoint x="590" y="430" as="sourcePoint" />
            <mxPoint x="1250" y="320" as="targetPoint" />
          </mxGeometry>
        </mxCell>
        <mxCell id="PxC1LavRJ6u6ARq5SEOI-7" value="Include" style="endArrow=block;endSize=16;endFill=0;html=1;rounded=0;exitX=0.428;exitY=0.02;exitDx=0;exitDy=0;exitPerimeter=0;" edge="1" parent="1" source="PxC1LavRJ6u6ARq5SEOI-5" target="PxC1LavRJ6u6ARq5SEOI-3">
          <mxGeometry x="-0.3651" width="160" relative="1" as="geometry">
            <mxPoint x="150" y="210" as="sourcePoint" />
            <mxPoint x="310" y="210" as="targetPoint" />
            <Array as="points">
              <mxPoint x="250" y="165" />
            </Array>
            <mxPoint as="offset" />
          </mxGeometry>
        </mxCell>
        <mxCell id="PxC1LavRJ6u6ARq5SEOI-9" value="&lt;div&gt;Consultar&lt;span style=&quot;background-color: transparent; color: light-dark(rgb(0, 0, 0), rgb(255, 255, 255));&quot;&gt;&amp;nbsp;&lt;/span&gt;&lt;/div&gt;" style="ellipse;whiteSpace=wrap;html=1;" vertex="1" parent="1">
          <mxGeometry x="490" y="430" width="140" height="85" as="geometry" />
        </mxCell>
        <mxCell id="PxC1LavRJ6u6ARq5SEOI-10" value="&lt;div&gt;modificar&lt;/div&gt;&lt;div&gt;consultar&lt;/div&gt;" style="ellipse;whiteSpace=wrap;html=1;" vertex="1" parent="1">
          <mxGeometry x="369" width="130" height="90" as="geometry" />
        </mxCell>
        <mxCell id="PxC1LavRJ6u6ARq5SEOI-11" value="" style="endArrow=classic;html=1;rounded=0;exitX=0.557;exitY=-0.014;exitDx=0;exitDy=0;entryX=0.538;entryY=1;entryDx=0;entryDy=0;entryPerimeter=0;exitPerimeter=0;" edge="1" parent="1" source="PxC1LavRJ6u6ARq5SEOI-3" target="PxC1LavRJ6u6ARq5SEOI-10">
          <mxGeometry width="50" height="50" relative="1" as="geometry">
            <mxPoint x="490" y="430" as="sourcePoint" />
            <mxPoint x="430" y="60" as="targetPoint" />
            <Array as="points" />
          </mxGeometry>
        </mxCell>
        <mxCell id="PxC1LavRJ6u6ARq5SEOI-12" value="extends" style="edgeLabel;html=1;align=center;verticalAlign=middle;resizable=0;points=[];" connectable="0" vertex="1" parent="PxC1LavRJ6u6ARq5SEOI-11">
          <mxGeometry x="-0.2" relative="1" as="geometry">
            <mxPoint as="offset" />
          </mxGeometry>
        </mxCell>
        <mxCell id="PxC1LavRJ6u6ARq5SEOI-13" value="&lt;div&gt;CU09&lt;/div&gt;Gestionar certificados laborales" style="ellipse;whiteSpace=wrap;html=1;strokeColor=light-dark(#FF2828,#FFFFFF);" vertex="1" parent="1">
          <mxGeometry x="740" y="260" width="120" height="80" as="geometry" />
        </mxCell>
        <mxCell id="PxC1LavRJ6u6ARq5SEOI-14" value="&lt;div&gt;&lt;span style=&quot;background-color: transparent; color: light-dark(rgb(0, 0, 0), rgb(255, 255, 255));&quot;&gt;crear&lt;/span&gt;&lt;/div&gt;&lt;div&gt;&lt;span style=&quot;background-color: transparent; color: light-dark(rgb(0, 0, 0), rgb(255, 255, 255));&quot;&gt;consultar&lt;/span&gt;&lt;br&gt;&lt;/div&gt;" style="ellipse;whiteSpace=wrap;html=1;" vertex="1" parent="1">
          <mxGeometry x="750" y="125" width="120" height="80" as="geometry" />
        </mxCell>
        <mxCell id="PxC1LavRJ6u6ARq5SEOI-15" value="&lt;div&gt;CU3&lt;/div&gt;Gestionar&lt;span style=&quot;background-color: transparent; color: light-dark(rgb(0, 0, 0), rgb(255, 255, 255));&quot;&gt;&amp;nbsp;vacantes&lt;/span&gt;" style="ellipse;whiteSpace=wrap;html=1;strokeColor=light-dark(#FF0F0F,#FFFFFF);" vertex="1" parent="1">
          <mxGeometry x="300" y="430" width="120" height="80" as="geometry" />
        </mxCell>
        <mxCell id="PxC1LavRJ6u6ARq5SEOI-17" value="&lt;div&gt;&lt;br&gt;Consultar&lt;/div&gt;&lt;div&gt;&lt;br&gt;&lt;/div&gt;" style="ellipse;whiteSpace=wrap;html=1;" vertex="1" parent="1">
          <mxGeometry x="10" y="584.5" width="140" height="85" as="geometry" />
        </mxCell>
        <mxCell id="PxC1LavRJ6u6ARq5SEOI-29" value="&lt;div&gt;CU07&lt;/div&gt;Gestionar solicitudes" style="ellipse;whiteSpace=wrap;html=1;strokeColor=light-dark(#FF0000,#FFFFFF);" vertex="1" parent="1">
          <mxGeometry x="460" y="270" width="120" height="80" as="geometry" />
        </mxCell>
        <mxCell id="PxC1LavRJ6u6ARq5SEOI-30" value="Include" style="endArrow=block;endSize=16;endFill=0;html=1;rounded=0;entryX=0;entryY=0.5;entryDx=0;entryDy=0;exitX=0.786;exitY=0.043;exitDx=0;exitDy=0;exitPerimeter=0;" edge="1" parent="1" source="PxC1LavRJ6u6ARq5SEOI-5" target="PxC1LavRJ6u6ARq5SEOI-29">
          <mxGeometry width="160" relative="1" as="geometry">
            <mxPoint x="510" y="240" as="sourcePoint" />
            <mxPoint x="922" y="365" as="targetPoint" />
          </mxGeometry>
        </mxCell>
        <mxCell id="PxC1LavRJ6u6ARq5SEOI-31" value="Crear&lt;div&gt;Consultar&lt;/div&gt;" style="ellipse;whiteSpace=wrap;html=1;" vertex="1" parent="1">
          <mxGeometry x="520" y="131" width="140" height="69" as="geometry" />
        </mxCell>
        <mxCell id="PxC1LavRJ6u6ARq5SEOI-32" value="" style="endArrow=classic;html=1;rounded=0;exitX=0.5;exitY=0;exitDx=0;exitDy=0;entryX=0.5;entryY=1;entryDx=0;entryDy=0;" edge="1" parent="1" source="PxC1LavRJ6u6ARq5SEOI-29" target="PxC1LavRJ6u6ARq5SEOI-31">
          <mxGeometry width="50" height="50" relative="1" as="geometry">
            <mxPoint x="812" y="381" as="sourcePoint" />
            <mxPoint x="960" y="518" as="targetPoint" />
            <Array as="points" />
          </mxGeometry>
        </mxCell>
        <mxCell id="PxC1LavRJ6u6ARq5SEOI-33" value="extends" style="edgeLabel;html=1;align=center;verticalAlign=middle;resizable=0;points=[];" connectable="0" vertex="1" parent="PxC1LavRJ6u6ARq5SEOI-32">
          <mxGeometry x="-0.2" relative="1" as="geometry">
            <mxPoint as="offset" />
          </mxGeometry>
        </mxCell>
        <mxCell id="PxC1LavRJ6u6ARq5SEOI-36" value="CU8&lt;div&gt;Gestionar ingresos&lt;/div&gt;" style="ellipse;whiteSpace=wrap;html=1;strokeColor=light-dark(#FF0000,#FFFFFF);" vertex="1" parent="1">
          <mxGeometry x="410" y="599.5" width="140" height="70" as="geometry" />
        </mxCell>
        <mxCell id="PxC1LavRJ6u6ARq5SEOI-37" value="extends" style="endArrow=block;endSize=16;endFill=0;html=1;rounded=0;exitX=1;exitY=0.5;exitDx=0;exitDy=0;entryX=0;entryY=0.5;entryDx=0;entryDy=0;" edge="1" parent="1" source="PxC1LavRJ6u6ARq5SEOI-36" target="PxC1LavRJ6u6ARq5SEOI-38">
          <mxGeometry width="160" relative="1" as="geometry">
            <mxPoint x="1160" y="980" as="sourcePoint" />
            <mxPoint x="1320" y="980" as="targetPoint" />
          </mxGeometry>
        </mxCell>
        <mxCell id="PxC1LavRJ6u6ARq5SEOI-38" value="Crear&lt;div&gt;Consultar&lt;/div&gt;" style="ellipse;whiteSpace=wrap;html=1;" vertex="1" parent="1">
          <mxGeometry x="610" y="599.5" width="140" height="70" as="geometry" />
        </mxCell>
        <mxCell id="PxC1LavRJ6u6ARq5SEOI-39" value="Include" style="endArrow=block;endSize=16;endFill=0;html=1;rounded=0;exitX=1;exitY=0.5;exitDx=0;exitDy=0;entryX=0;entryY=0.5;entryDx=0;entryDy=0;" edge="1" parent="1" source="PxC1LavRJ6u6ARq5SEOI-4" target="PxC1LavRJ6u6ARq5SEOI-36">
          <mxGeometry width="160" relative="1" as="geometry">
            <mxPoint x="440" y="634" as="sourcePoint" />
            <mxPoint x="557" y="580" as="targetPoint" />
          </mxGeometry>
        </mxCell>
        <mxCell id="PxC1LavRJ6u6ARq5SEOI-40" value="CU11&lt;div&gt;Gestionar Horas extras&lt;/div&gt;" style="ellipse;whiteSpace=wrap;html=1;strokeColor=light-dark(#FF3B00,#FFFFFF);" vertex="1" parent="1">
          <mxGeometry x="204" y="770" width="140" height="70" as="geometry" />
        </mxCell>
        <mxCell id="PxC1LavRJ6u6ARq5SEOI-41" value="extends" style="endArrow=block;endSize=16;endFill=0;html=1;rounded=0;" edge="1" parent="1" source="PxC1LavRJ6u6ARq5SEOI-40" target="PxC1LavRJ6u6ARq5SEOI-42">
          <mxGeometry width="160" relative="1" as="geometry">
            <mxPoint x="510" y="1260" as="sourcePoint" />
            <mxPoint x="670" y="1260" as="targetPoint" />
          </mxGeometry>
        </mxCell>
        <mxCell id="PxC1LavRJ6u6ARq5SEOI-42" value="Crear&lt;div&gt;Consultar&lt;/div&gt;" style="ellipse;whiteSpace=wrap;html=1;" vertex="1" parent="1">
          <mxGeometry y="780" width="140" height="70" as="geometry" />
        </mxCell>
        <mxCell id="PxC1LavRJ6u6ARq5SEOI-43" value="Include" style="endArrow=block;endSize=16;endFill=0;html=1;rounded=0;exitX=0.5;exitY=1;exitDx=0;exitDy=0;entryX=0.5;entryY=0;entryDx=0;entryDy=0;" edge="1" parent="1" source="PxC1LavRJ6u6ARq5SEOI-4" target="PxC1LavRJ6u6ARq5SEOI-40">
          <mxGeometry width="160" relative="1" as="geometry">
            <mxPoint x="330" y="720" as="sourcePoint" />
            <mxPoint x="447" y="666" as="targetPoint" />
          </mxGeometry>
        </mxCell>
        <mxCell id="PxC1LavRJ6u6ARq5SEOI-44" value="Include" style="endArrow=block;endSize=16;endFill=0;html=1;rounded=0;exitX=0.429;exitY=1;exitDx=0;exitDy=0;exitPerimeter=0;entryX=0.336;entryY=-0.021;entryDx=0;entryDy=0;entryPerimeter=0;" edge="1" parent="1" source="PxC1LavRJ6u6ARq5SEOI-5" target="PxC1LavRJ6u6ARq5SEOI-4">
          <mxGeometry width="160" relative="1" as="geometry">
            <mxPoint x="370" y="510" as="sourcePoint" />
            <mxPoint x="931.04" y="470" as="targetPoint" />
          </mxGeometry>
        </mxCell>
        <mxCell id="PxC1LavRJ6u6ARq5SEOI-47" value="Include" style="endArrow=block;endSize=16;endFill=0;html=1;rounded=0;entryX=0.008;entryY=0.563;entryDx=0;entryDy=0;exitX=1;exitY=0.5;exitDx=0;exitDy=0;entryPerimeter=0;" edge="1" parent="1" source="PxC1LavRJ6u6ARq5SEOI-29" target="PxC1LavRJ6u6ARq5SEOI-13">
          <mxGeometry width="160" relative="1" as="geometry">
            <mxPoint x="970" y="369" as="sourcePoint" />
            <mxPoint x="1030" y="371" as="targetPoint" />
          </mxGeometry>
        </mxCell>
        <mxCell id="PxC1LavRJ6u6ARq5SEOI-48" value="" style="endArrow=classic;html=1;rounded=0;exitX=0;exitY=0.5;exitDx=0;exitDy=0;entryX=1;entryY=0.5;entryDx=0;entryDy=0;" edge="1" parent="1" source="PxC1LavRJ6u6ARq5SEOI-4" target="PxC1LavRJ6u6ARq5SEOI-17">
          <mxGeometry width="50" height="50" relative="1" as="geometry">
            <mxPoint x="500" y="510" as="sourcePoint" />
            <mxPoint x="500" y="460" as="targetPoint" />
            <Array as="points" />
          </mxGeometry>
        </mxCell>
        <mxCell id="PxC1LavRJ6u6ARq5SEOI-49" value="extends" style="edgeLabel;html=1;align=center;verticalAlign=middle;resizable=0;points=[];" connectable="0" vertex="1" parent="PxC1LavRJ6u6ARq5SEOI-48">
          <mxGeometry x="-0.2" relative="1" as="geometry">
            <mxPoint as="offset" />
          </mxGeometry>
        </mxCell>
        <mxCell id="PxC1LavRJ6u6ARq5SEOI-50" value="" style="endArrow=classic;html=1;rounded=0;exitX=0.5;exitY=0;exitDx=0;exitDy=0;entryX=0.5;entryY=1;entryDx=0;entryDy=0;exitPerimeter=0;" edge="1" parent="1" source="PxC1LavRJ6u6ARq5SEOI-13" target="PxC1LavRJ6u6ARq5SEOI-14">
          <mxGeometry width="50" height="50" relative="1" as="geometry">
            <mxPoint x="1078" y="315" as="sourcePoint" />
            <mxPoint x="1082" y="255" as="targetPoint" />
            <Array as="points" />
          </mxGeometry>
        </mxCell>
        <mxCell id="PxC1LavRJ6u6ARq5SEOI-51" value="extends" style="edgeLabel;html=1;align=center;verticalAlign=middle;resizable=0;points=[];" connectable="0" vertex="1" parent="PxC1LavRJ6u6ARq5SEOI-50">
          <mxGeometry x="-0.2" relative="1" as="geometry">
            <mxPoint as="offset" />
          </mxGeometry>
        </mxCell>
        <mxCell id="PxC1LavRJ6u6ARq5SEOI-53" value="Include" style="endArrow=block;endSize=16;endFill=0;html=1;rounded=0;exitX=0.686;exitY=0.957;exitDx=0;exitDy=0;exitPerimeter=0;" edge="1" parent="1" source="PxC1LavRJ6u6ARq5SEOI-5" target="PxC1LavRJ6u6ARq5SEOI-15">
          <mxGeometry width="160" relative="1" as="geometry">
            <mxPoint x="370" y="430" as="sourcePoint" />
            <mxPoint x="520" y="570" as="targetPoint" />
          </mxGeometry>
        </mxCell>
      </root>
    </mxGraphModel>
  </diagram>
</mxfile>
